<svg xmlns="http://www.w3.org/2000/svg" xmlns:xlink="http://www.w3.org/1999/xlink" width="511.656" height="295.904" viewBox="0 0 511.656 295.904">
  <defs>
    <linearGradient id="linear-gradient" x1="11.677" y1="-10.674" x2="11.759" y2="-9.735" gradientUnits="objectBoundingBox">
      <stop offset="0.164" stop-color="#a05805"/>
      <stop offset="0.212" stop-color="#a66212"/>
      <stop offset="0.303" stop-color="#b77f35"/>
      <stop offset="0.426" stop-color="#d2ad6d"/>
      <stop offset="0.574" stop-color="#f7ecba"/>
      <stop offset="0.601" stop-color="#fff9ca"/>
      <stop offset="1" stop-color="#c38f24"/>
    </linearGradient>
    <linearGradient id="linear-gradient-2" x1="0.794" y1="0.306" x2="1.275" y2="-1.068" gradientUnits="objectBoundingBox">
      <stop offset="0" stop-color="#f3e08d"/>
      <stop offset="0.166" stop-color="#c59227"/>
      <stop offset="0.278" stop-color="#c38f24"/>
      <stop offset="0.292" stop-color="#c08a21"/>
      <stop offset="0.423" stop-color="#a8650c"/>
      <stop offset="0.493" stop-color="#a05805"/>
      <stop offset="0.517" stop-color="#a66212"/>
      <stop offset="0.562" stop-color="#b77f35"/>
      <stop offset="0.623" stop-color="#d2ad6d"/>
      <stop offset="0.696" stop-color="#f7ecba"/>
      <stop offset="0.71" stop-color="#fff9ca"/>
      <stop offset="0.861" stop-color="#c38f24"/>
    </linearGradient>
    <linearGradient id="linear-gradient-3" x1="1.094" y1="-1.375" x2="1.125" y2="-0.352" gradientUnits="objectBoundingBox">
      <stop offset="0" stop-color="#89540f"/>
      <stop offset="0.118" stop-color="#8f550b"/>
      <stop offset="0.266" stop-color="#a05805"/>
      <stop offset="0.312" stop-color="#a66212"/>
      <stop offset="0.399" stop-color="#b77f35"/>
      <stop offset="0.517" stop-color="#d2ad6d"/>
      <stop offset="0.66" stop-color="#f7ecba"/>
      <stop offset="0.686" stop-color="#fff9ca"/>
      <stop offset="0.841" stop-color="#c38f24"/>
      <stop offset="1" stop-color="#63380e"/>
    </linearGradient>
    <linearGradient id="linear-gradient-4" x1="1.185" y1="-0.609" x2="1.31" y2="-2.036" gradientUnits="objectBoundingBox">
      <stop offset="0" stop-color="#63380e"/>
      <stop offset="0.139" stop-color="#c38f24"/>
      <stop offset="0.321" stop-color="#fff9ca"/>
      <stop offset="0.402" stop-color="#e3c58a"/>
      <stop offset="0.483" stop-color="#ca9752"/>
      <stop offset="0.543" stop-color="#ba7b2f"/>
      <stop offset="0.575" stop-color="#b57122"/>
      <stop offset="0.662" stop-color="#bb7e22"/>
      <stop offset="0.739" stop-color="#c38f24"/>
      <stop offset="0.773" stop-color="#c99a32"/>
      <stop offset="0.839" stop-color="#dbb758"/>
      <stop offset="0.915" stop-color="#f3e08d"/>
    </linearGradient>
  </defs>
  <g id="Group_36214" data-name="Group 36214" transform="translate(-116.773 -40.666)">
    <g id="Group_23143" data-name="Group 23143" transform="translate(378.916 205.13) rotate(12.007)">
      <path id="Path_41183" data-name="Path 41183" d="M0,0C9.233,5.809,4.854,21.192,4.685,20.374l12.463-1.438C17.8,14.837,16.18,1.818,0,0Z" transform="translate(238.365 2.374)" fill="url(#linear-gradient)"/>
      <path id="Path_41184" data-name="Path 41184" d="M51.786,5.955C33.78,18.389,21.422,60.177,0,51.1,45.47,66.627,44.592,24.792,65.415,8.554,73.241,2.451,83.546.9,91.3,3.684,85.7,1.325,66.674-4.326,51.786,5.955Z" transform="translate(152.885 0)" fill="url(#linear-gradient-2)"/>
      <path id="Path_41185" data-name="Path 41185" d="M0,0C9.167,2.728,14.332,8.655,26,16.148,55.419,35.034,67.7,31.281,80.307,30.5c-7.67-.82-24.82-8.289-31.332-12.493C29.021,5.145,12.826.386,0,0Z" transform="translate(70.649 23.997)" fill="url(#linear-gradient-3)"/>
      <path id="Path_41186" data-name="Path 41186" d="M0,19.367l17.785,3.022C20.318,17.414,42.474.1,65.607,3.339,21.119-8.181,3.078,13.323,0,19.367Z" transform="translate(0 21.466)" fill="url(#linear-gradient-4)"/>
    </g>
    <g id="Group_27880" data-name="Group 27880" transform="translate(116.773 40.666)">
      <rect id="Rectangle_5596" data-name="Rectangle 5596" width="347.122" height="295.904" rx="10" transform="translate(0 0)" fill="#fff" opacity="0.6"/>
      <rect id="Rectangle_5597" data-name="Rectangle 5597" width="347.122" height="32.835" rx="6" transform="translate(0 0)" fill="#5c9cf4"/>
      <g id="Group_27872" data-name="Group 27872" transform="translate(14.037 12.294)">
        <path id="Path_81108" data-name="Path 81108" d="M106.131,85.582a3.926,3.926,0,1,1,3.926,3.925A3.926,3.926,0,0,1,106.131,85.582Z" transform="translate(-106.131 -81.657)" fill="#dae6ff"/>
        <path id="Path_81109" data-name="Path 81109" d="M120.844,85.582a3.925,3.925,0,1,1,3.925,3.925A3.925,3.925,0,0,1,120.844,85.582Z" transform="translate(-104.367 -81.657)" fill="#dae6ff"/>
        <path id="Path_81110" data-name="Path 81110" d="M135.556,85.582a3.925,3.925,0,1,1,3.925,3.925A3.925,3.925,0,0,1,135.556,85.582Z" transform="translate(-102.603 -81.657)" fill="#dae6ff"/>
      </g>
      <rect id="Rectangle_5598" data-name="Rectangle 5598" width="98.398" height="98.398" transform="translate(27.509 58.888)" fill="#c8dffd" opacity="0.5"/>
      <path id="Path_81111" data-name="Path 81111" d="M308.579,130.607H230.311a3.718,3.718,0,0,1-3.719-3.718h0a3.719,3.719,0,0,1,3.719-3.719h78.267a3.718,3.718,0,0,1,3.718,3.719h0A3.718,3.718,0,0,1,308.579,130.607Z" transform="translate(-77.649 -64.385)" fill="#7798f8" opacity="0.5"/>
      <path id="Path_81112" data-name="Path 81112" d="M392.151,126.154H313.883a3.719,3.719,0,0,1-3.718-3.719h0a3.718,3.718,0,0,1,3.718-3.718h78.267a3.718,3.718,0,0,1,3.718,3.718h0A3.719,3.719,0,0,1,392.151,126.154Z" transform="translate(-67.628 -64.919)" fill="#7798f8" opacity="0.5"/>
      <g id="Group_27873" data-name="Group 27873" transform="translate(148.943 90.03)" opacity="0.3">
        <path id="Path_81113" data-name="Path 81113" d="M324.072,155.889H229a2.411,2.411,0,0,1-2.411-2.41h0a2.41,2.41,0,0,1,2.411-2.41h95.068a2.409,2.409,0,0,1,2.41,2.41h0A2.41,2.41,0,0,1,324.072,155.889Z" transform="translate(-226.592 -151.069)" fill="#b8d0fc"/>
        <path id="Path_81114" data-name="Path 81114" d="M348.85,155.889h-25.1a2.411,2.411,0,0,1-2.41-2.41h0a2.41,2.41,0,0,1,2.41-2.41h25.1a2.409,2.409,0,0,1,2.41,2.41h0A2.41,2.41,0,0,1,348.85,155.889Z" transform="translate(-215.23 -151.069)" fill="#b8d0fc"/>
        <path id="Path_81115" data-name="Path 81115" d="M264.873,169.237H229a2.411,2.411,0,0,1-2.411-2.411h0a2.411,2.411,0,0,1,2.411-2.41h35.87a2.41,2.41,0,0,1,2.41,2.41h0A2.41,2.41,0,0,1,264.873,169.237Z" transform="translate(-226.592 -149.469)" fill="#b8d0fc"/>
        <path id="Path_81116" data-name="Path 81116" d="M318.174,169.237H269.022a2.41,2.41,0,0,1-2.41-2.411h0a2.41,2.41,0,0,1,2.41-2.41h49.152a2.41,2.41,0,0,1,2.41,2.41h0A2.41,2.41,0,0,1,318.174,169.237Z" transform="translate(-221.793 -149.469)" fill="#b8d0fc"/>
        <path id="Path_81117" data-name="Path 81117" d="M348.85,169.237h-25.1a2.411,2.411,0,0,1-2.41-2.411h0a2.411,2.411,0,0,1,2.41-2.41h25.1a2.41,2.41,0,0,1,2.41,2.41h0A2.41,2.41,0,0,1,348.85,169.237Z" transform="translate(-215.23 -149.469)" fill="#b8d0fc"/>
        <path id="Path_81118" data-name="Path 81118" d="M277.675,180.778H229a2.411,2.411,0,0,1-2.411-2.41h0a2.41,2.41,0,0,1,2.411-2.41h48.671a2.41,2.41,0,0,1,2.411,2.41h0A2.411,2.411,0,0,1,277.675,180.778Z" transform="translate(-226.592 -148.085)" fill="#b8d0fc"/>
        <path id="Path_81119" data-name="Path 81119" d="M363.98,180.778h-79.6a2.41,2.41,0,0,1-2.41-2.41h0a2.409,2.409,0,0,1,2.41-2.41h79.6a2.41,2.41,0,0,1,2.41,2.41h0A2.411,2.411,0,0,1,363.98,180.778Z" transform="translate(-219.952 -148.085)" fill="#b8d0fc"/>
      </g>
      <g id="Group_27874" data-name="Group 27874" transform="translate(148.943 137.517)" opacity="0.3">
        <path id="Path_81120" data-name="Path 81120" d="M324.072,198.292H229a2.41,2.41,0,0,1-2.411-2.41h0a2.41,2.41,0,0,1,2.411-2.41h95.068a2.409,2.409,0,0,1,2.41,2.41h0A2.409,2.409,0,0,1,324.072,198.292Z" transform="translate(-226.592 -193.472)" fill="#b8d0fc"/>
        <path id="Path_81121" data-name="Path 81121" d="M348.85,198.292h-25.1a2.41,2.41,0,0,1-2.41-2.41h0a2.41,2.41,0,0,1,2.41-2.41h25.1a2.409,2.409,0,0,1,2.41,2.41h0A2.409,2.409,0,0,1,348.85,198.292Z" transform="translate(-215.23 -193.472)" fill="#b8d0fc"/>
        <path id="Path_81122" data-name="Path 81122" d="M264.873,211.64H229a2.411,2.411,0,0,1-2.411-2.41h0A2.41,2.41,0,0,1,229,206.82h35.87a2.409,2.409,0,0,1,2.41,2.41h0A2.41,2.41,0,0,1,264.873,211.64Z" transform="translate(-226.592 -191.871)" fill="#b8d0fc"/>
        <path id="Path_81123" data-name="Path 81123" d="M318.174,211.64H269.022a2.41,2.41,0,0,1-2.41-2.41h0a2.409,2.409,0,0,1,2.41-2.41h49.152a2.409,2.409,0,0,1,2.41,2.41h0A2.41,2.41,0,0,1,318.174,211.64Z" transform="translate(-221.793 -191.871)" fill="#b8d0fc"/>
      </g>
      <g id="Group_27875" data-name="Group 27875" transform="translate(44.173 73.556)">
        <path id="Path_81124" data-name="Path 81124" d="M160.495,136.359h10.162L198.111,199.2H186.524l-6.33-15.065h-29.5L144.272,199.2H133.04Zm15.689,38.062L165.4,149.463l-10.7,24.958Z" transform="translate(-133.04 -136.359)" fill="#b8d0fc"/>
      </g>
      <g id="Group_27876" data-name="Group 27876" transform="translate(27.509 177.106)">
        <rect id="Rectangle_5599" data-name="Rectangle 5599" width="54.966" height="10.611" fill="#ff912b"/>
        <rect id="Rectangle_5600" data-name="Rectangle 5600" width="54.966" height="10.611" transform="translate(0 10.611)" fill="#fc7600"/>
        <rect id="Rectangle_5601" data-name="Rectangle 5601" width="54.966" height="10.611" transform="translate(0 21.223)" fill="#4b49f2"/>
      </g>
      <g id="Group_27877" data-name="Group 27877" transform="translate(90.44 178.531)">
        <path id="Path_81125" data-name="Path 81125" d="M206.888,234.677H176.644a2.291,2.291,0,0,1-2.291-2.291h0a2.291,2.291,0,0,1,2.291-2.291h30.243a2.291,2.291,0,0,1,2.291,2.291h0A2.291,2.291,0,0,1,206.888,234.677Z" transform="translate(-174.353 -230.094)" fill="#b8d0fc"/>
        <path id="Path_81126" data-name="Path 81126" d="M196.7,241.89H176.644a2.291,2.291,0,0,1-2.291-2.291h0a2.291,2.291,0,0,1,2.291-2.291H196.7a2.291,2.291,0,0,1,2.291,2.291h0A2.291,2.291,0,0,1,196.7,241.89Z" transform="translate(-174.353 -229.229)" fill="#b8d0fc"/>
      </g>
      <g id="Group_27878" data-name="Group 27878" transform="translate(27.509 231.971)">
        <rect id="Rectangle_5602" data-name="Rectangle 5602" width="54.966" height="21.682" fill="#ff912b"/>
        <rect id="Rectangle_5603" data-name="Rectangle 5603" width="54.966" height="15.507" transform="translate(0 16.328)" fill="#c23b35"/>
        <path id="Path_81127" data-name="Path 81127" d="M118.161,277.813l19.719,16.563-19.719,15.271Z" transform="translate(-118.161 -277.813)" fill="#4b49f2"/>
      </g>
      <g id="Group_27879" data-name="Group 27879" transform="translate(90.44 233.396)">
        <path id="Path_81128" data-name="Path 81128" d="M206.888,283.668H176.644a2.291,2.291,0,0,1-2.291-2.291h0a2.291,2.291,0,0,1,2.291-2.291h30.243a2.291,2.291,0,0,1,2.291,2.291h0A2.291,2.291,0,0,1,206.888,283.668Z" transform="translate(-174.353 -279.085)" fill="#b8d0fc"/>
        <path id="Path_81129" data-name="Path 81129" d="M196.7,290.88H176.644a2.291,2.291,0,0,1-2.291-2.291h0a2.292,2.292,0,0,1,2.291-2.291H196.7a2.292,2.292,0,0,1,2.291,2.291h0A2.291,2.291,0,0,1,196.7,290.88Z" transform="translate(-174.353 -278.22)" fill="#b8d0fc"/>
      </g>
    </g>
  </g>
</svg>
