<svg id="Group_46740" data-name="Group 46740" xmlns="http://www.w3.org/2000/svg" xmlns:xlink="http://www.w3.org/1999/xlink" width="715.209" height="176.071" viewBox="0 0 715.209 176.071">
  <defs>
    <linearGradient id="linear-gradient" x1="0.916" y1="0.209" x2="-0.067" y2="0.784" gradientUnits="objectBoundingBox">
      <stop offset="0" stop-color="#aee9d6"/>
      <stop offset="0.116" stop-color="#aee9d6"/>
      <stop offset="0.273" stop-color="#caf0e5"/>
      <stop offset="0.559" stop-color="#ddf6ee"/>
      <stop offset="0.941" stop-color="#def6ef"/>
      <stop offset="1" stop-color="#e0f7f0"/>
    </linearGradient>
    <linearGradient id="linear-gradient-2" x1="0.46" y1="2.484" x2="0.519" y2="-0.552" gradientUnits="objectBoundingBox">
      <stop offset="0" stop-color="#fff"/>
      <stop offset="1" stop-color="#fff" stop-opacity="0"/>
    </linearGradient>
  </defs>
  <g id="Group_20290" data-name="Group 20290" transform="translate(0 0)">
    <g id="Group_12260" data-name="Group 12260" opacity="0.778">
      <g id="Group_3194" data-name="Group 3194">
        <g id="Group_3191" data-name="Group 3191">
          <path id="Path_9219" data-name="Path 9219" d="M1210.4-334.635c-28.542,36.927-74.529,63.456-124.326,66.351s-101.439-14.947-135.021-48.255c-13.9-13.8-25.24-30.534-38.768-44.636s-30.493-26.649-50.8-30.16c-37.137-6.418-71,19.4-94.916,45.843s-45.332,56.748-80.21,69.97c-38.942,14.754-88.913,1.158-110.958-31.366-10.869-16.045-14.652-34.635-18.716-53.081s-9.331-38.158-20.053-54.287-20.6-29.146-41.442-28.953a45.521,45.521,0,0,1,17.379,0c20.975,3.7,39.918,20.352,52.137,37.4,15.6,21.787,28.02,46.193,52.137,60.319,30.868,18.1,72.229,11.509,104.274-4.826s58.233-39.871,88.231-59.113,67.4-34.02,102.937-25.334c39.2,9.579,64.382,43.37,94.916,67.558,51.321,40.643,125.957,55.253,191.168,37.4C1202.5-330.932,1206.365-333.248,1210.4-334.635Z" transform="translate(-495.193 444.048)" fill="url(#linear-gradient)"/>
          <path id="Path_9220" data-name="Path 9220" d="M1193.992-317.691a137.647,137.647,0,0,1-42.779,14.705c-26.911,4.759-50.212,3.061-77.537,2.674a152.946,152.946,0,0,1-109.621-49.463c-20.28-22.191-34.677-50.573-61.495-64.168-26.108-13.235-58.286-8.208-84.221,5.347s-47.244,34.37-68.179,54.81-42.632,40.6-69.516,52.137-60.439,13.061-84.221-4.01c-22.619-16.229-32.124-44.61-41.442-70.852-9.318-26.2-22-54.289-46.789-66.842,20.975,4.1,39.918,22.552,52.137,41.442,15.6,24.143,28.02,51.188,52.137,66.842,30.868,20.053,72.229,12.753,104.274-5.347s58.233-44.182,88.231-65.505,67.4-37.7,102.937-28.074c39.2,10.615,64.382,48.059,94.916,74.863C1054.145-314.095,1128.781-297.906,1193.992-317.691Z" transform="translate(-490.814 444.282)" fill="url(#linear-gradient-2)" style="mix-blend-mode: overlay;isolation: isolate"/>
        </g>
      </g>
    </g>
  </g>
</svg>
