<svg xmlns="http://www.w3.org/2000/svg" width="329.04" height="252.534" viewBox="0 0 329.04 252.534">
  <g id="Group_35147" data-name="Group 35147" transform="translate(0 0)">
    <g id="Group_35139" data-name="Group 35139">
      <path id="Path_81726" data-name="Path 81726" d="M2913.252,1605.229a.524.524,0,0,0-.719-.185l-1.742,1.029-1.029-1.741a.525.525,0,0,0-.9.534l1.029,1.742-1.741,1.029a.525.525,0,1,0,.533.9l1.742-1.029,1.029,1.742a.525.525,0,0,0,.9-.534l-1.029-1.742,1.741-1.029A.525.525,0,0,0,2913.252,1605.229Z" transform="translate(-2654.187 -1397.781)" fill="#dedede"/>
      <path id="Path_81727" data-name="Path 81727" d="M2944.443,1645.75a2.286,2.286,0,1,1,2.286-2.286A2.288,2.288,0,0,1,2944.443,1645.75Zm0-3.35a1.064,1.064,0,1,0,1.064,1.065A1.066,1.066,0,0,0,2944.443,1642.4Z" transform="translate(-2680.963 -1426.773)" fill="#dedede"/>
      <path id="Path_81728" data-name="Path 81728" d="M1888.209,1799.229a2.286,2.286,0,1,1,2.286-2.286A2.288,2.288,0,0,1,1888.209,1799.229Zm0-3.35a1.064,1.064,0,1,0,1.064,1.064A1.066,1.066,0,0,0,1888.209,1795.879Z" transform="translate(-1855.666 -1546.695)" fill="#dedede"/>
      <path id="Path_81729" data-name="Path 81729" d="M3046.251,674.693a2.286,2.286,0,1,1,2.286-2.286A2.288,2.288,0,0,1,3046.251,674.693Zm0-3.35a1.064,1.064,0,1,0,1.065,1.064A1.065,1.065,0,0,0,3046.251,671.343Z" transform="translate(-2760.511 -668.031)" fill="#dedede"/>
      <path id="Path_81730" data-name="Path 81730" d="M3228.18,955.69a.524.524,0,0,0-.242.7l.886,1.818-1.818.886a.525.525,0,1,0,.459.944l1.819-.886.886,1.819a.525.525,0,1,0,.944-.46l-.886-1.819,1.818-.886a.525.525,0,1,0-.459-.943l-1.819.886-.885-1.818A.526.526,0,0,0,3228.18,955.69Z" transform="translate(-2903.301 -891.121)" fill="#dedede"/>
      <path id="Path_81731" data-name="Path 81731" d="M3074.173,1138.558a2.286,2.286,0,1,1,2.286-2.286A2.289,2.289,0,0,1,3074.173,1138.558Zm0-3.35a1.064,1.064,0,1,0,1.064,1.065A1.066,1.066,0,0,0,3074.173,1135.208Z" transform="translate(-2782.328 -1030.475)" fill="#dedede"/>
      <path id="Path_81732" data-name="Path 81732" d="M1747.819,1300.182a.524.524,0,0,0-.023.742l1.384,1.476-1.475,1.384a.525.525,0,0,0,.718.766l1.475-1.384,1.384,1.475a.525.525,0,0,0,.765-.718l-1.384-1.475,1.476-1.384a.525.525,0,0,0-.718-.765l-1.476,1.384-1.384-1.475A.525.525,0,0,0,1747.819,1300.182Z" transform="translate(-1747.539 -1160.223)" fill="#dedede"/>
      <path id="Path_81733" data-name="Path 81733" d="M1843.7,1399.328a2.286,2.286,0,1,1,2.286-2.286A2.288,2.288,0,0,1,1843.7,1399.328Zm0-3.35a1.064,1.064,0,1,0,1.064,1.064A1.066,1.066,0,0,0,1843.7,1395.978Z" transform="translate(-1820.887 -1234.23)" fill="#dedede"/>
      <g id="Group_35138" data-name="Group 35138" transform="translate(3.261)">
        <g id="Group_35136" data-name="Group 35136" transform="translate(0 125.314)">
          <path id="Path_81734" data-name="Path 81734" d="M1821.369,1345.359a.465.465,0,0,1-.026-.93c1.534-.086,3.088-.24,4.616-.455a.465.465,0,1,1,.13.922c-1.554.219-3.133.375-4.693.463Zm-6.544-.02h-.03c-1.563-.1-3.141-.264-4.69-.495a.465.465,0,0,1,.137-.92c1.522.226,3.074.39,4.611.486a.465.465,0,0,1-.028.93Zm17.616-1.73a.465.465,0,0,1-.117-.915c1.491-.392,2.982-.851,4.432-1.365a.465.465,0,1,1,.311.877c-1.474.522-2.989.989-4.506,1.387A.462.462,0,0,1,1832.441,1343.609Zm-28.676-.107a.467.467,0,0,1-.123-.017c-1.51-.412-3.021-.895-4.493-1.434a.465.465,0,0,1,.321-.874c1.446.53,2.933,1,4.418,1.41a.465.465,0,0,1-.123.914Zm39.173-3.818a.465.465,0,0,1-.207-.882c1.38-.684,2.747-1.434,4.064-2.232a.465.465,0,1,1,.482.8c-1.339.811-2.729,1.575-4.133,2.27A.462.462,0,0,1,1842.938,1339.683Zm-49.632-.215a.464.464,0,0,1-.21-.05c-1.4-.708-2.779-1.484-4.113-2.308a.465.465,0,0,1,.489-.792c1.311.81,2.672,1.573,4.045,2.269a.465.465,0,0,1-.211.88Zm59.112-5.752a.465.465,0,0,1-.287-.832c1.213-.948,2.4-1.96,3.529-3.009a.466.466,0,0,1,.634.682c-1.148,1.066-2.356,2.1-3.589,3.059A.463.463,0,0,1,1852.418,1333.716Zm-68.548-.3a.463.463,0,0,1-.289-.1c-1.227-.974-2.428-2.012-3.568-3.084a.465.465,0,0,1,.638-.678c1.122,1.055,2.3,2.075,3.509,3.033a.465.465,0,0,1-.289.83Zm76.632-7.464a.465.465,0,0,1-.354-.767c1-1.173,1.958-2.4,2.854-3.656a.465.465,0,1,1,.757.541c-.911,1.274-1.887,2.525-2.9,3.718A.464.464,0,0,1,1860.5,1325.956Zm-84.662-.351a.465.465,0,0,1-.357-.166c-1.007-1.2-1.974-2.459-2.874-3.739a.465.465,0,1,1,.761-.535c.885,1.258,1.836,2.495,2.827,3.676a.465.465,0,0,1-.357.764Zm91.028-8.875a.465.465,0,0,1-.407-.689c.742-1.35,1.437-2.747,2.064-4.153a.465.465,0,1,1,.85.379c-.637,1.43-1.343,2.851-2.1,4.223A.465.465,0,0,1,1866.867,1316.73Zm-97.319-.4a.466.466,0,0,1-.41-.245c-.742-1.379-1.435-2.806-2.057-4.243a.465.465,0,1,1,.854-.37c.612,1.413,1.293,2.817,2.023,4.172a.466.466,0,0,1-.409.686Zm101.708-9.916a.466.466,0,0,1-.445-.6c.457-1.472.855-2.98,1.185-4.484a.465.465,0,0,1,.909.2c-.336,1.529-.741,3.063-1.206,4.559A.465.465,0,0,1,1871.256,1306.415Zm-105.991-.44a.466.466,0,0,1-.446-.332c-.448-1.5-.838-3.034-1.16-4.57a.465.465,0,0,1,.911-.191c.317,1.511.7,3.023,1.141,4.494a.466.466,0,0,1-.446.6Zm108.207-10.55-.046,0a.466.466,0,0,1-.418-.508c.149-1.532.234-3.089.252-4.63a.465.465,0,1,1,.93.011c-.019,1.567-.1,3.151-.256,4.709A.465.465,0,0,1,1873.472,1295.424Zm-110.329-.456a.465.465,0,0,1-.463-.424c-.141-1.562-.217-3.147-.227-4.711a.466.466,0,0,1,.463-.468h0a.465.465,0,0,1,.465.463c.009,1.538.084,3.1.223,4.633a.465.465,0,0,1-.422.505Zm110.271-10.752a.465.465,0,0,1-.462-.416c-.163-1.527-.394-3.071-.685-4.588l-.011-.059a.465.465,0,0,1,.914-.177l.011.06c.3,1.543.531,3.112.7,4.665a.465.465,0,0,1-.413.512A.384.384,0,0,1,1873.415,1284.216Zm-110.143-.46a.438.438,0,0,1-.053,0,.465.465,0,0,1-.41-.515c.177-1.556.423-3.124.732-4.659a.465.465,0,1,1,.912.183c-.3,1.51-.546,3.051-.72,4.581A.465.465,0,0,1,1763.272,1283.756Zm107.827-10.568a.466.466,0,0,1-.443-.324c-.467-1.469-1-2.934-1.59-4.355a.465.465,0,0,1,.86-.356c.6,1.445,1.142,2.935,1.617,4.429a.466.466,0,0,1-.443.606Zm-105.431-.383a.459.459,0,0,1-.145-.024.465.465,0,0,1-.3-.587c.489-1.487,1.047-2.972,1.659-4.415a.465.465,0,0,1,.856.364c-.6,1.418-1.151,2.879-1.631,4.341A.466.466,0,0,1,1765.668,1272.8Zm100.969-9.9a.464.464,0,0,1-.406-.238c-.754-1.342-1.574-2.669-2.44-3.943a.465.465,0,1,1,.77-.523c.88,1.3,1.715,2.645,2.481,4.01a.465.465,0,0,1-.405.693Zm-96.414-.345a.466.466,0,0,1-.4-.7c.777-1.359,1.622-2.7,2.511-3.992a.465.465,0,1,1,.766.528c-.874,1.268-1.705,2.589-2.469,3.926A.465.465,0,0,1,1770.223,1262.563Zm89.964-8.815a.466.466,0,0,1-.352-.16c-1.009-1.162-2.081-2.3-3.186-3.37a.465.465,0,1,1,.649-.667c1.123,1.092,2.213,2.245,3.24,3.427a.465.465,0,0,1-.351.77Zm-83.45-.305a.465.465,0,0,1-.35-.772c1.034-1.177,2.13-2.323,3.259-3.408a.465.465,0,1,1,.645.671c-1.11,1.067-2.188,2.194-3.205,3.352A.463.463,0,0,1,1776.737,1253.442Zm75.283-7.37a.463.463,0,0,1-.282-.1c-1.223-.937-2.5-1.832-3.8-2.663a.465.465,0,1,1,.5-.784c1.318.844,2.618,1.755,3.861,2.708a.465.465,0,0,1-.283.834Zm-67.074-.257a.465.465,0,0,1-.281-.836c1.25-.945,2.555-1.847,3.879-2.682a.465.465,0,0,1,.5.787c-1.3.821-2.586,1.708-3.814,2.637A.465.465,0,0,1,1784.946,1245.816Zm57.535-5.628a.466.466,0,0,1-.2-.047c-1.386-.673-2.817-1.295-4.254-1.848a.465.465,0,0,1,.335-.868c1.461.563,2.916,1.2,4.325,1.88a.465.465,0,0,1-.2.884Zm-47.954-.185a.465.465,0,0,1-.2-.886c1.414-.671,2.875-1.29,4.342-1.839a.465.465,0,1,1,.326.871c-1.443.54-2.879,1.149-4.269,1.809A.463.463,0,0,1,1794.527,1240Zm37.427-3.667a.478.478,0,0,1-.115-.014c-1.493-.38-3.02-.7-4.539-.952a.465.465,0,0,1,.152-.918c1.545.256,3.1.582,4.616.968a.465.465,0,0,1-.114.916Zm-26.868-.086a.465.465,0,0,1-.11-.917c.925-.226,1.87-.433,2.81-.614.6-.115,1.21-.222,1.813-.318a.465.465,0,1,1,.146.919c-.593.094-1.193.2-1.783.313-.925.178-1.854.381-2.763.6A.475.475,0,0,1,1805.086,1236.249Zm15.777-1.558h-.021c-.815-.036-1.642-.055-2.457-.055-.723,0-1.457.015-2.181.043a.465.465,0,0,1-.037-.93c.736-.029,1.482-.044,2.218-.044.829,0,1.669.019,2.5.056a.465.465,0,0,1-.021.93Z" transform="translate(-1762.454 -1233.705)" fill="#dedede"/>
        </g>
        <g id="Group_35137" data-name="Group 35137" transform="translate(122.564)">
          <path id="Path_81735" data-name="Path 81735" d="M2426.629,855.258q-.4.026-.8.049a.465.465,0,0,1-.056-.929h0c1.521-.086,3.061-.209,4.58-.367a.465.465,0,0,1,.1.926C2429.183,855.068,2427.9,855.176,2426.629,855.258Zm-7.257.2h-.035c-1.54-.015-3.1-.068-4.634-.157a.465.465,0,1,1,.053-.929c1.521.088,3.065.14,4.59.155a.465.465,0,0,1,.025.93Zm17.46-1.4a.465.465,0,0,1-.108-.923c1.505-.257,3.023-.553,4.508-.879a.465.465,0,1,1,.2.909c-1.5.329-3.031.628-4.551.887Zm-28.5.652a.469.469,0,0,1-.089,0c-1.528-.192-3.071-.423-4.586-.687a.465.465,0,1,1,.16-.917c1.5.262,3.028.491,4.542.68a.465.465,0,0,1-.027.926Zm39.294-3.128a.465.465,0,0,1-.16-.911c1.464-.425,2.937-.891,4.379-1.385a.465.465,0,0,1,.3.88c-1.455.5-2.942.97-4.42,1.4A.472.472,0,0,1,2447.622,851.584Zm-50.191,1.119a.46.46,0,0,1-.14-.013c-1.5-.366-3.005-.774-4.485-1.212a.465.465,0,0,1,.265-.892c1.465.434,2.959.838,4.441,1.2a.465.465,0,0,1-.081.916Zm60.627-4.81a.465.465,0,0,1-.21-.893c1.406-.59,2.816-1.222,4.191-1.879a.465.465,0,1,1,.4.84c-1.388.662-2.811,1.3-4.232,1.9A.464.464,0,0,1,2458.058,847.893Zm-71.225,1.561a.461.461,0,0,1-.191-.028c-1.444-.535-2.9-1.113-4.313-1.717a.465.465,0,1,1,.365-.856c1.4.6,2.842,1.17,4.272,1.7a.465.465,0,0,1-.132.9ZM2468,843.033a.465.465,0,0,1-.259-.87c1.325-.746,2.651-1.534,3.94-2.342a.465.465,0,1,1,.494.788c-1.3.816-2.64,1.612-3.978,2.365A.459.459,0,0,1,2468,843.033Zm-91.315,1.983a.464.464,0,0,1-.24-.049c-1.374-.7-2.749-1.435-4.088-2.2a.465.465,0,0,1,.46-.809c1.326.753,2.688,1.485,4.049,2.176a.465.465,0,0,1-.18.879Zm100.624-7.947a.465.465,0,0,1-.3-.841c1.233-.893,2.46-1.828,3.649-2.779a.465.465,0,0,1,.582.727c-1.2.96-2.44,1.9-3.685,2.806A.458.458,0,0,1,2477.3,837.069Zm-110.2,2.384a.462.462,0,0,1-.286-.076c-1.286-.848-2.568-1.738-3.81-2.645a.465.465,0,0,1,.549-.752c1.231.9,2.5,1.78,3.774,2.62a.465.465,0,0,1-.227.853Zm118.775-9.375a.465.465,0,0,1-.344-.808c1.123-1.028,2.237-2.1,3.311-3.178a.465.465,0,0,1,.66.656c-1.084,1.091-2.209,2.171-3.344,3.209A.463.463,0,0,1,2485.877,830.078Zm-127.656,2.764a.461.461,0,0,1-.328-.107c-1.18-.987-2.353-2.016-3.484-3.058a.465.465,0,1,1,.63-.685c1.121,1.032,2.282,2.051,3.451,3.029a.466.466,0,0,1-.269.821ZM2493.6,822.154a.465.465,0,0,1-.381-.77c1-1.15,1.987-2.339,2.931-3.535a.465.465,0,0,1,.73.577c-.954,1.207-1.95,2.408-2.959,3.569A.464.464,0,0,1,2493.6,822.154Zm-143.454,3.115a.464.464,0,0,1-.368-.144c-1.06-1.114-2.108-2.269-3.113-3.431a.465.465,0,1,1,.7-.609c1,1.152,2.034,2.3,3.084,3.4a.465.465,0,0,1-.306.785ZM2500.383,813.4a.465.465,0,0,1-.413-.728c.864-1.257,1.71-2.551,2.513-3.846a.465.465,0,0,1,.791.491c-.811,1.308-1.665,2.614-2.538,3.883A.464.464,0,0,1,2500.383,813.4Zm-157.392,3.43a.465.465,0,0,1-.4-.184c-.925-1.226-1.833-2.492-2.7-3.761a.465.465,0,1,1,.769-.525c.858,1.258,1.758,2.511,2.674,3.725a.466.466,0,0,1-.341.745Zm163.14-12.9a.465.465,0,0,1-.44-.683c.717-1.348,1.41-2.73,2.061-4.108a.466.466,0,0,1,.842.4c-.657,1.391-1.357,2.787-2.081,4.148A.464.464,0,0,1,2506.13,803.936Zm-169.285,3.7a.465.465,0,0,1-.431-.228c-.779-1.323-1.536-2.683-2.25-4.042a.465.465,0,1,1,.823-.433c.708,1.346,1.458,2.693,2.229,4a.466.466,0,0,1-.371.7Zm173.92-13.768a.465.465,0,0,1-.463-.635c.559-1.422,1.09-2.875,1.579-4.319a.465.465,0,1,1,.881.3c-.494,1.458-1.03,2.926-1.594,4.361A.467.467,0,0,1,2510.765,793.873ZM2331.792,797.8a.465.465,0,0,1-.456-.276c-.623-1.407-1.22-2.848-1.776-4.283a.466.466,0,0,1,.868-.336c.55,1.422,1.141,2.849,1.759,4.242a.466.466,0,0,1-.4.653Zm182.43-14.46a.466.466,0,0,1-.48-.584c.392-1.477.754-2.983,1.074-4.475a.465.465,0,0,1,.91.2c-.323,1.507-.688,3.027-1.085,4.518A.465.465,0,0,1,2514.222,783.342Zm-186.325,4.1a.465.465,0,0,1-.474-.326c-.458-1.468-.886-2.968-1.273-4.458a.465.465,0,1,1,.9-.234c.384,1.476.809,2.961,1.261,4.416a.465.465,0,0,1-.414.6Zm188.549-14.953a.464.464,0,0,1-.491-.531c.219-1.508.405-3.042.552-4.559a.465.465,0,0,1,.927.09c-.149,1.532-.336,3.081-.557,4.6A.465.465,0,0,1,2516.445,772.487ZM2325.211,776.7a.465.465,0,0,1-.487-.377c-.287-1.509-.543-3.048-.76-4.574a.465.465,0,0,1,.922-.131c.215,1.511.469,3.036.753,4.531a.465.465,0,0,1-.37.544A.422.422,0,0,1,2325.211,776.7Zm192.2-15.242h-.045a.465.465,0,0,1-.451-.479c.045-1.523.054-3.068.026-4.592a.465.465,0,1,1,.93-.017c.028,1.539.02,3.1-.026,4.636A.465.465,0,0,1,2517.407,761.459Zm-193.651,4.265a.466.466,0,0,1-.494-.429q-.041-.544-.077-1.087c-.076-1.176-.131-2.368-.164-3.544a.465.465,0,1,1,.93-.026c.033,1.165.088,2.346.164,3.51q.035.538.075,1.077a.465.465,0,0,1-.429.5ZM2517.1,750.393a.465.465,0,0,1-.494-.425c-.128-1.516-.294-3.053-.494-4.568l-.02-.147a.465.465,0,0,1,.923-.123l.02.149c.2,1.528.37,3.079.5,4.61a.466.466,0,0,1-.425.5Zm-193.555,4.263h-.048a.465.465,0,0,1-.448-.483c.059-1.538.156-3.1.288-4.628a.465.465,0,1,1,.927.08c-.131,1.518-.227,3.06-.285,4.584A.465.465,0,0,1,2323.547,754.656Zm191.976-15.373a.467.467,0,0,1-.486-.373c-.3-1.5-.64-3-1.01-4.48a.465.465,0,0,1,.9-.226c.374,1.492.717,3.013,1.02,4.523a.466.466,0,0,1-.365.548A.449.449,0,0,1,2515.523,739.283ZM2324.6,743.637a.466.466,0,0,1-.49-.535c.235-1.525.511-3.064.82-4.576a.465.465,0,1,1,.912.186c-.306,1.5-.578,3.022-.812,4.532A.466.466,0,0,1,2324.6,743.637Zm188.125-15.065a.466.466,0,0,1-.473-.321c-.468-1.451-.978-2.909-1.515-4.335a.465.465,0,0,1,.871-.328c.542,1.44,1.057,2.913,1.53,4.377a.466.466,0,0,1-.413.607Zm-185.805,4.22a.46.46,0,0,1-.153-.016.465.465,0,0,1-.325-.572c.409-1.486.859-2.982,1.339-4.448a.465.465,0,1,1,.885.289c-.475,1.452-.922,2.934-1.326,4.405A.466.466,0,0,1,2326.924,732.792Zm181.805-14.542a.466.466,0,0,1-.454-.271c-.631-1.388-1.305-2.778-2-4.133a.465.465,0,0,1,.828-.426c.7,1.368,1.384,2.772,2.022,4.173a.465.465,0,0,1-.393.657Zm-178.257,4.041a.466.466,0,0,1-.461-.638c.576-1.428,1.194-2.863,1.838-4.263a.465.465,0,1,1,.845.388c-.637,1.387-1.25,2.808-1.82,4.222A.466.466,0,0,1,2330.472,722.291Zm173.1-13.829a.466.466,0,0,1-.429-.224c-.784-1.3-1.612-2.6-2.459-3.869a.465.465,0,0,1,.773-.518c.855,1.277,1.691,2.591,2.483,3.906a.465.465,0,0,1-.368.7Zm-168.38,3.807a.465.465,0,0,1-.438-.687c.734-1.353,1.511-2.706,2.31-4.024a.465.465,0,0,1,.8.482c-.791,1.305-1.561,2.646-2.288,3.986A.467.467,0,0,1,2335.195,712.269Zm162.141-12.936a.465.465,0,0,1-.4-.18c-.93-1.206-1.9-2.406-2.887-3.566a.465.465,0,0,1,.71-.6c.995,1.171,1.975,2.382,2.914,3.6a.465.465,0,0,1-.338.748Zm-156.312,3.519a.465.465,0,0,1-.411-.731c.884-1.26,1.809-2.517,2.75-3.734a.465.465,0,0,1,.736.569c-.933,1.206-1.85,2.45-2.724,3.7A.465.465,0,0,1,2341.024,702.852Zm149.068-11.882a.465.465,0,0,1-.364-.14c-1.061-1.093-2.163-2.175-3.275-3.217a.465.465,0,1,1,.636-.679c1.123,1.052,2.235,2.144,3.306,3.248a.465.465,0,0,1-.3.788Zm-142.21,3.19a.465.465,0,0,1-.379-.773c1.02-1.152,2.081-2.295,3.154-3.4a.465.465,0,1,1,.667.649c-1.062,1.091-2.113,2.223-3.124,3.365A.462.462,0,0,1,2347.882,694.16Zm134.062-10.679a.466.466,0,0,1-.325-.1c-1.178-.966-2.4-1.917-3.62-2.826a.465.465,0,0,1,.555-.747c1.236.918,2.466,1.878,3.655,2.854a.465.465,0,0,1-.265.824ZM2355.677,686.3a.465.465,0,0,1-.342-.81c1.143-1.028,2.327-2.043,3.517-3.015a.465.465,0,1,1,.589.721c-1.179.963-2.351,1.968-3.484,2.986A.463.463,0,0,1,2355.677,686.3Zm117.317-9.344a.464.464,0,0,1-.282-.073c-1.281-.827-2.6-1.634-3.919-2.4a.465.465,0,0,1,.467-.805c1.332.772,2.663,1.587,3.956,2.422a.465.465,0,0,1-.222.856Zm-108.684,2.428a.465.465,0,0,1-.3-.843c1.252-.891,2.543-1.763,3.835-2.593a.465.465,0,0,1,.5.783c-1.281.822-2.559,1.686-3.8,2.568A.461.461,0,0,1,2364.311,679.388Zm99.051-7.893a.466.466,0,0,1-.236-.047c-1.367-.676-2.77-1.328-4.169-1.939a.465.465,0,0,1,.373-.853c1.412.616,2.828,1.275,4.209,1.957a.465.465,0,0,1-.177.881Zm-89.689,2.012a.465.465,0,0,1-.255-.872c1.348-.743,2.732-1.463,4.114-2.14a.465.465,0,1,1,.41.836c-1.368.671-2.74,1.383-4.075,2.119A.457.457,0,0,1,2373.672,673.506Zm79.492-6.346a.467.467,0,0,1-.187-.026c-1.437-.516-2.906-1-4.365-1.45a.465.465,0,1,1,.272-.89c1.473.451,2.956.943,4.407,1.464a.465.465,0,0,1-.128.9Zm-69.505,1.57a.465.465,0,0,1-.206-.9c1.424-.583,2.881-1.139,4.333-1.653a.465.465,0,0,1,.311.877c-1.437.509-2.881,1.06-4.291,1.637A.474.474,0,0,1,2383.659,668.73Zm58.875-4.711a.464.464,0,0,1-.136-.011c-1.488-.348-3-.664-4.506-.94a.465.465,0,1,1,.168-.915c1.517.279,3.047.6,4.55.949a.465.465,0,0,1-.076.917Zm-48.406,1.113a.465.465,0,0,1-.156-.913c1.48-.416,2.991-.8,4.492-1.147a.465.465,0,1,1,.209.907c-1.487.342-2.984.724-4.449,1.136A.484.484,0,0,1,2394.127,665.132Zm37.49-3.011a.46.46,0,0,1-.084,0c-1.513-.174-3.052-.314-4.574-.415a.465.465,0,1,1,.062-.928c1.536.1,3.09.243,4.618.419a.465.465,0,0,1-.022.927Zm-26.68.629a.465.465,0,0,1-.1-.924c.948-.153,1.911-.294,2.865-.42.574-.076,1.156-.147,1.729-.213a.465.465,0,1,1,.106.925c-.568.065-1.145.135-1.713.21-.945.125-1.9.265-2.838.416Zm15.628-1.261h-.031c-1.522,0-3.066.037-4.591.11a.465.465,0,0,1-.052-.929h.008c1.539-.073,3.1-.111,4.635-.111a.465.465,0,0,1,.031.93Z" transform="translate(-2323.02 -660.56)" fill="#dedede"/>
        </g>
      </g>
    </g>
    <g id="Group_35142" data-name="Group 35142" transform="translate(85.847 13.366)">
      <g id="Group_35140" data-name="Group 35140">
        <path id="Path_81736" data-name="Path 81736" d="M2292.982,766.179V926.256h-.42l-12.12-11.793-12.12,11.793h-1.262l-12.12-11.793-12.121,11.793h-1.246l-12.1-11.771-12.1,11.771h-1.24l-12.112-11.784-12.112,11.784h-1.278l-12.112-11.784-12.112,11.784h-1.263l-12.089-11.762-12.088,11.762h-.8V721.69h108.319Z" transform="translate(-2140.174 -721.69)" fill="#f2f2f2"/>
        <path id="Path_81737" data-name="Path 81737" d="M2680.082,766.179h-44.489V721.69Z" transform="translate(-2527.273 -721.69)" fill="#dedede"/>
      </g>
    </g>
  </g>
</svg>
