<svg xmlns="http://www.w3.org/2000/svg" xmlns:xlink="http://www.w3.org/1999/xlink" width="510.779" height="225.695" viewBox="0 0 510.779 225.695">
  <defs>
    <linearGradient id="linear-gradient" x1="0.5" y1="-0.227" x2="0.5" y2="0.559" gradientUnits="objectBoundingBox">
      <stop offset="0" stop-color="#e5e5e5"/>
      <stop offset="0.476" stop-color="#f3f3f3"/>
      <stop offset="1" stop-color="#fff"/>
    </linearGradient>
  </defs>
  <g id="Group_35112" data-name="Group 35112" transform="translate(0 0)">
    <path id="Path_81690" data-name="Path 81690" d="M1769.243,909.625a3.549,3.549,0,0,0-7.013,1.1c.51,3.305,1.157,13.661-2.416,17.828a4.769,4.769,0,0,1-2.881,1.656l.325-19.723a5.13,5.13,0,1,0-10.257.042l.927,37.429a4.788,4.788,0,0,1-3-1.672c-3.574-4.167-2.925-14.522-2.416-17.828a3.549,3.549,0,1,0-7.012-1.1c-.255,1.629-2.306,16.129,4.031,23.535a12.015,12.015,0,0,0,8.576,4.216l.4,16.291h7.745l.562-34.038a11.992,11.992,0,0,0,8.4-4.2C1771.549,925.753,1769.5,911.253,1769.243,909.625Z" transform="translate(-1348.853 -905.268)" fill="#bdbdbd"/>
    <path id="Path_81691" data-name="Path 81691" d="M1209.149,965.366a2.262,2.262,0,1,0-4.47.7c.324,2.107.738,8.708-1.541,11.364a3.041,3.041,0,0,1-1.836,1.056l.207-12.573a3.27,3.27,0,1,0-6.539.027l.591,23.859a3.048,3.048,0,0,1-1.913-1.066c-2.278-2.656-1.865-9.258-1.541-11.365a2.262,2.262,0,1,0-4.47-.7c-.163,1.039-1.471,10.282,2.57,15a7.658,7.658,0,0,0,5.467,2.687l.257,10.386h4.937l.358-21.7a7.649,7.649,0,0,0,5.353-2.679C1210.619,975.647,1209.311,966.4,1209.149,965.366Z" transform="translate(-1119.425 -929.281)" fill="#bdbdbd"/>
    <ellipse id="Ellipse_4177" data-name="Ellipse 4177" cx="255.39" cy="90.413" rx="255.39" ry="90.413" transform="translate(0 44.87)" fill="url(#linear-gradient)"/>
  </g>
</svg>
