<svg xmlns="http://www.w3.org/2000/svg" width="17.452" height="17.45" viewBox="0 0 17.452 17.45">
  <g id="Layer_2" data-name="Layer 2" transform="translate(0.073 0.048)">
    <g id="Search" transform="translate(-0.073 -0.048)">
      <path id="Path_5" data-name="Path 5" d="M17.119,15.9,13.43,12.213a.968.968,0,0,0-1.366,0A6.11,6.11,0,1,1,13.783,6.5a6.183,6.183,0,0,1-.063,2.9.875.875,0,1,0,1.691.451,7.874,7.874,0,1,0-2.7,4.129l3.168,3.165A.877.877,0,1,0,17.119,15.9Z" transform="translate(0.073 0.048)" fill="#737373"/>
      <path id="Path_6" data-name="Path 6" d="M19.962,29.572a.859.859,0,0,0-1.048-.094,2.976,2.976,0,0,1-3.025.059.842.842,0,0,0-1,.115l-.052.049a.842.842,0,0,0,.147,1.331,4.733,4.733,0,0,0,4.891-.1.842.842,0,0,0,.143-1.307Z" transform="translate(-9.456 -19.075)" fill="#00c569"/>
    </g>
  </g>
</svg>
