<svg xmlns="http://www.w3.org/2000/svg" xmlns:xlink="http://www.w3.org/1999/xlink" width="408" height="87" viewBox="0 0 408 87">
  <defs>
    <clipPath id="clip-path">
      <rect id="Rectangle_17971" data-name="Rectangle 17971" width="408" height="87" transform="translate(-0.391 0.038)" fill="#fff" opacity="0.379"/>
    </clipPath>
  </defs>
  <g id="Mask_Group_283" data-name="Mask Group 283" transform="translate(0.391 -0.038)" clip-path="url(#clip-path)">
    <g id="Group_46797" data-name="Group 46797" transform="translate(1.674 15.973)">
      <path id="Path_108759" data-name="Path 108759" d="M350.192,386.841a34.427,34.427,0,0,1,6.088.488,13.073,13.073,0,0,1,4.592,1.661,7.955,7.955,0,0,1,2.9,3.1,10.213,10.213,0,0,1,1.008,4.786v21.559a1.527,1.527,0,0,1-1.008,1.4,5.417,5.417,0,0,1-2.379.487,5.949,5.949,0,0,1-2.538-.487,1.529,1.529,0,0,1-1.042-1.4V396.613a2.384,2.384,0,0,0-.946-2.019,6.549,6.549,0,0,0-2.213-1.075,11.518,11.518,0,0,0-2.54-.423c-.847-.043-1.489-.067-1.921-.067s-1.076.023-1.921.067a11.536,11.536,0,0,0-2.542.423,6.549,6.549,0,0,0-2.213,1.075,2.383,2.383,0,0,0-.944,2.019v.259a4.234,4.234,0,0,1,2.18-1.073,15.728,15.728,0,0,1,2.768-.228,9.05,9.05,0,0,1,2.573.356,5.585,5.585,0,0,1,2.151,1.2,6.011,6.011,0,0,1,1.5,2.15,8.207,8.207,0,0,1,.554,3.192V414.72a3.819,3.819,0,0,1-.684,2.182,6.387,6.387,0,0,1-1.921,1.789,9.945,9.945,0,0,1-2.965,1.2,16.922,16.922,0,0,1-7.523,0,10.373,10.373,0,0,1-2.962-1.2,6.263,6.263,0,0,1-1.956-1.789,3.831,3.831,0,0,1-.682-2.182V396.872a9.464,9.464,0,0,1,1.107-4.786,8.548,8.548,0,0,1,3.06-3.1,13.776,13.776,0,0,1,4.626-1.661A32.238,32.238,0,0,1,350.192,386.841Zm-2.866,16.674q0-1.756-2.41-1.757a3.49,3.49,0,0,0-1.563.389,1.3,1.3,0,0,0-.782,1.238v9.249q0,1.5,2.345,1.5,2.41,0,2.41-1.5Z" transform="translate(-335.602 -375.247)" fill="#fff"/>
      <path id="Path_108760" data-name="Path 108760" d="M371.856,403.241a2.508,2.508,0,0,1,1.042.751,3.43,3.43,0,0,1,.586,1.073,4.573,4.573,0,0,1,.228,1.174c.022.391.033.715.033.977v7.621a3.342,3.342,0,0,1-.845,2.182,7.762,7.762,0,0,1-2.273,1.789,12.6,12.6,0,0,1-3.311,1.2,18.283,18.283,0,0,1-7.823,0,12.663,12.663,0,0,1-3.28-1.2,7.761,7.761,0,0,1-2.272-1.789,3.34,3.34,0,0,1-.843-2.182V409.1a1.529,1.529,0,0,1,1.031-1.4,5.893,5.893,0,0,1,2.519-.487,5.489,5.489,0,0,1,2.417.487,1.525,1.525,0,0,1,1,1.4v3.58q0,.719,1.051,1.14a6.3,6.3,0,0,0,2.37.423,5.868,5.868,0,0,0,2.269-.423q1.018-.421,1.019-1.14V409.04a1.367,1.367,0,0,0-.393-1.109,2.78,2.78,0,0,0-.715-.456l-10.682-3.646a2.5,2.5,0,0,1-1.044-.749,3.474,3.474,0,0,1-.584-1.075,4.509,4.509,0,0,1-.228-1.174c-.022-.389-.033-.716-.033-.977V392.3a3.332,3.332,0,0,1,.843-2.182,7.767,7.767,0,0,1,2.272-1.793,12.8,12.8,0,0,1,3.28-1.2,18.28,18.28,0,0,1,7.823,0,12.733,12.733,0,0,1,3.311,1.2,7.768,7.768,0,0,1,2.273,1.793,3.335,3.335,0,0,1,.845,2.182v5.732a1.526,1.526,0,0,1-1.035,1.4,5.805,5.805,0,0,1-2.513.49,5.488,5.488,0,0,1-2.388-.49,1.524,1.524,0,0,1-1.033-1.4v-3.584q0-.716-1.053-1.14a6.332,6.332,0,0,0-2.366-.422,5.975,5.975,0,0,0-2.238.422q-1.05.423-1.051,1.14V397.9a1.369,1.369,0,0,0,.391,1.109,2.741,2.741,0,0,0,.717.456Z" transform="translate(-321.443 -375.364)" fill="#fff"/>
      <path id="Path_108761" data-name="Path 108761" d="M396.462,397.2h2.669v-.389a9.834,9.834,0,0,1,1.044-4.757,8.137,8.137,0,0,1,2.931-3.074,13.029,13.029,0,0,1,4.527-1.65,31.86,31.86,0,0,1,5.764-.487,33.306,33.306,0,0,1,6.023.488,12.376,12.376,0,0,1,4.464,1.661,7.62,7.62,0,0,1,2.766,3.1,10.807,10.807,0,0,1,.946,4.786v21.559a1.535,1.535,0,0,1-1.042,1.4,5.619,5.619,0,0,1-2.41.487,5.732,5.732,0,0,1-2.508-.487,1.531,1.531,0,0,1-1.011-1.4V396.613a2.415,2.415,0,0,0-.912-2.019,6.269,6.269,0,0,0-2.117-1.075,10.387,10.387,0,0,0-2.41-.423c-.8-.043-1.4-.067-1.789-.067-.434,0-1.066.022-1.891.065a10.637,10.637,0,0,0-2.441.416,5.978,5.978,0,0,0-2.086,1.06,2.406,2.406,0,0,0-.878,1.987v.641h3.647a10.028,10.028,0,0,1,2.671.36,6.3,6.3,0,0,1,2.312,1.178,6.188,6.188,0,0,1,1.659,2.153,7.317,7.317,0,0,1,.653,3.233V414.7a4.746,4.746,0,0,1-2.41,3.984,11.452,11.452,0,0,1-6.513,1.632,11.619,11.619,0,0,1-6.546-1.628,4.717,4.717,0,0,1-2.444-3.971V403.385h-2.669V414.72a3.508,3.508,0,0,1-.782,2.182,7.235,7.235,0,0,1-2.119,1.789,11.225,11.225,0,0,1-3.157,1.2,16.971,16.971,0,0,1-3.843.423,15.891,15.891,0,0,1-4.266-.552,11.856,11.856,0,0,1-3.291-1.4,8.368,8.368,0,0,1-2.41,1.467,8.89,8.89,0,0,1-3.322.554,9.236,9.236,0,0,1-2.669-.393,6.776,6.776,0,0,1-4.04-3.3,6.041,6.041,0,0,1-.65-2.906V403.533A5.548,5.548,0,0,1,368.1,398.9a8.691,8.691,0,0,1,5.5-1.7h3.126V392.41a3.477,3.477,0,0,1,.78-2.171,7.288,7.288,0,0,1,2.119-1.778,11.335,11.335,0,0,1,3.126-1.2,16.626,16.626,0,0,1,3.81-.422,17.077,17.077,0,0,1,3.843.422,11.333,11.333,0,0,1,3.157,1.2,7.265,7.265,0,0,1,2.119,1.778,3.479,3.479,0,0,1,.782,2.171Zm-19.735,6.188h-1.433a2.683,2.683,0,0,0-1.858.521,2.14,2.14,0,0,0-.552,1.628V412.7c0,1,.563,1.5,1.693,1.5a1.748,1.748,0,0,0,1.238-.425,2.383,2.383,0,0,0,.651-1.008,4.708,4.708,0,0,0,.228-1.205c.022-.413.033-.749.033-1.011ZM383.7,397.2h5.795v-2.692a1.2,1.2,0,0,0-.845-1.091,5.235,5.235,0,0,0-2.149-.385,4.7,4.7,0,0,0-1.954.385,1.2,1.2,0,0,0-.847,1.091Zm5.795,6.188H383.7v9.249a1.217,1.217,0,0,0,.847,1.109,4.64,4.64,0,0,0,1.954.389,5.173,5.173,0,0,0,2.149-.389,1.22,1.22,0,0,0,.845-1.109Zm16.611,0v9.249a1.435,1.435,0,0,0,.422,1.109,2.3,2.3,0,0,0,1.532.389q2.016,0,2.017-1.5V405.6a2.666,2.666,0,0,0-.456-1.565,1.777,1.777,0,0,0-1.561-.651Z" transform="translate(-311.072 -375.247)" fill="#fff"/>
      <path id="Path_108762" data-name="Path 108762" d="M404.592,391.59a10.981,10.981,0,0,1-6.414-1.628,4.712,4.712,0,0,1-2.314-3.906v-3.193a1.507,1.507,0,0,1,1.011-1.433,5.754,5.754,0,0,1,2.376-.456,6.4,6.4,0,0,1,2.542.45,1.488,1.488,0,0,1,1.042,1.413v1.026a1.781,1.781,0,0,0,.324,1.124,1.7,1.7,0,0,0,1.368.418,1.924,1.924,0,0,0,1.467-.418,1.669,1.669,0,0,0,.358-1.124v-1.026a1.486,1.486,0,0,1,1.04-1.413,6.4,6.4,0,0,1,2.542-.45,5.769,5.769,0,0,1,2.377.456,1.508,1.508,0,0,1,1.01,1.433v3.193a4.712,4.712,0,0,1-2.314,3.906A10.98,10.98,0,0,1,404.592,391.59Z" transform="translate(-286.834 -379.996)" fill="#fff"/>
      <path id="Path_108763" data-name="Path 108763" d="M409.35,405.94a4.713,4.713,0,0,1,1.889-1.051,10.829,10.829,0,0,1,3-.331,9.545,9.545,0,0,1,2.9.427,7.463,7.463,0,0,1,2.312,1.176,6.039,6.039,0,0,1,1.563,1.768,4.281,4.281,0,0,1,.586,2.191v4.576a3.628,3.628,0,0,1-.749,2.193,7.122,7.122,0,0,1-2.019,1.8,10.332,10.332,0,0,1-3.061,1.21,16.622,16.622,0,0,1-3.81.423,16.107,16.107,0,0,1-3.778-.423,10.354,10.354,0,0,1-3.029-1.2,7.051,7.051,0,0,1-2.019-1.789,3.593,3.593,0,0,1-.749-2.182V392.443a3.6,3.6,0,0,1,.749-2.182,7.076,7.076,0,0,1,2.019-1.789,10.4,10.4,0,0,1,3.029-1.2,16.106,16.106,0,0,1,3.778-.425,16.523,16.523,0,0,1,3.81.425,10.379,10.379,0,0,1,3.061,1.2,7.1,7.1,0,0,1,2.019,1.789,3.609,3.609,0,0,1,.749,2.182V397a4.258,4.258,0,0,1-.586,2.182,5.978,5.978,0,0,1-1.563,1.757,7.457,7.457,0,0,1-2.312,1.174,9.544,9.544,0,0,1-2.9.422,10.849,10.849,0,0,1-3-.327,4.716,4.716,0,0,1-1.889-1.053Zm0-11.058a1.185,1.185,0,0,0,.716,1.087,4.178,4.178,0,0,0,1.954.382,4.016,4.016,0,0,0,1.889-.382,1.187,1.187,0,0,0,.716-1.087V394.5a1.191,1.191,0,0,0-.716-1.087,4.037,4.037,0,0,0-1.889-.384,4.2,4.2,0,0,0-1.954.384,1.188,1.188,0,0,0-.716,1.087Zm0,17.752a1.212,1.212,0,0,0,.716,1.109,4.128,4.128,0,0,0,1.954.389,3.969,3.969,0,0,0,1.889-.389,1.215,1.215,0,0,0,.716-1.109v-.389a1.217,1.217,0,0,0-.716-1.109,3.967,3.967,0,0,0-1.889-.391,4.126,4.126,0,0,0-1.954.391,1.214,1.214,0,0,0-.716,1.109Z" transform="translate(-281.56 -375.247)" fill="#fff"/>
      <path id="Path_108764" data-name="Path 108764" d="M423.154,386.841a15.918,15.918,0,0,1,1.6.1,14.526,14.526,0,0,1,1.987.358,10.741,10.741,0,0,1,2.052.749,5.955,5.955,0,0,1,1.791,1.337,5.954,5.954,0,0,1,1.791-1.337,10.96,10.96,0,0,1,2.019-.749,13.392,13.392,0,0,1,1.987-.358q.977-.1,1.628-.1a11.382,11.382,0,0,1,6.416,1.63,4.713,4.713,0,0,1,2.443,3.971v25.988a1.531,1.531,0,0,1-1.01,1.4,5.409,5.409,0,0,1-2.377.487,5.952,5.952,0,0,1-2.54-.487,1.532,1.532,0,0,1-1.042-1.4v-23.9a1.221,1.221,0,0,0-.847-1.109,4.815,4.815,0,0,0-2.019-.391,4.708,4.708,0,0,0-1.921.391q-.879.394-1.01.912v24.1a1.536,1.536,0,0,1-1.075,1.4,5.841,5.841,0,0,1-2.442.487,5.619,5.619,0,0,1-2.41-.487,1.532,1.532,0,0,1-1.042-1.4v-24.1a1.872,1.872,0,0,0-1.075-.912,4.714,4.714,0,0,0-1.921-.391,4.814,4.814,0,0,0-2.019.391,1.221,1.221,0,0,0-.847,1.109v23.9a1.529,1.529,0,0,1-1.01,1.4,5.737,5.737,0,0,1-2.508.487,5.568,5.568,0,0,1-2.443-.487,1.526,1.526,0,0,1-1.01-1.4V392.443a4.713,4.713,0,0,1,2.442-3.971A11.379,11.379,0,0,1,423.154,386.841Z" transform="translate(-271.917 -375.247)" fill="#fff"/>
      <path id="Path_108765" data-name="Path 108765" d="M440.671,399.87a1.528,1.528,0,0,1-1.042,1.4,5.942,5.942,0,0,1-2.542.49,5.364,5.364,0,0,1-2.376-.49,1.522,1.522,0,0,1-1.011-1.4v-7.427a3.6,3.6,0,0,1,.749-2.182,7.125,7.125,0,0,1,2.019-1.789,10.4,10.4,0,0,1,3.029-1.2,16.117,16.117,0,0,1,3.778-.425,16.55,16.55,0,0,1,3.812.425,10.368,10.368,0,0,1,3.06,1.2,7.077,7.077,0,0,1,2.019,1.789,3.6,3.6,0,0,1,.749,2.182V414.72a3.593,3.593,0,0,1-.749,2.182,7.051,7.051,0,0,1-2.019,1.789,10.319,10.319,0,0,1-3.06,1.2,16.549,16.549,0,0,1-3.812.423,16.117,16.117,0,0,1-3.778-.423,10.354,10.354,0,0,1-3.029-1.2,7.1,7.1,0,0,1-2.019-1.789,3.593,3.593,0,0,1-.749-2.182v-7.492a1.521,1.521,0,0,1,1.011-1.4,5.364,5.364,0,0,1,2.376-.49,5.942,5.942,0,0,1,2.542.49,1.528,1.528,0,0,1,1.042,1.4v5.406a1.214,1.214,0,0,0,.715,1.109,3.97,3.97,0,0,0,1.889.389,4.129,4.129,0,0,0,1.954-.389,1.217,1.217,0,0,0,.718-1.109V394.529a1.219,1.219,0,0,0-.718-1.109,4.126,4.126,0,0,0-1.954-.391,3.968,3.968,0,0,0-1.889.391,1.215,1.215,0,0,0-.715,1.109Z" transform="translate(-256.215 -375.247)" fill="#fff"/>
      <path id="Path_108766" data-name="Path 108766" d="M475.578,411.118a11.591,11.591,0,0,1-.914,4.9,7.578,7.578,0,0,1-2.215,2.938h3.975a1.525,1.525,0,0,1,1.4,1.008,5.388,5.388,0,0,1,.49,2.379,5.012,5.012,0,0,1-.49,2.278,1.52,1.52,0,0,1-1.4.977H447.5a1.516,1.516,0,0,1-1.4-.977,5.01,5.01,0,0,1-.49-2.278,5.386,5.386,0,0,1,.49-2.379,1.521,1.521,0,0,1,1.4-1.008h10.617a14.886,14.886,0,0,0,7.59-1.956,5.648,5.648,0,0,0,2.9-5.015v-2.538q0-.98-.552-1.14a3.463,3.463,0,0,0-.946-.165h-.521a1.524,1.524,0,0,1-1.4-.878,5.1,5.1,0,0,1,0-4.366,1.525,1.525,0,0,1,1.4-.879l.521-.065c.783,0,1.227-.172,1.335-.516a3.093,3.093,0,0,0,.163-.906v-3.944a2.316,2.316,0,0,0-1.008-2,7.282,7.282,0,0,0-2.379-1.066,13.175,13.175,0,0,0-2.7-.42c-.89-.043-1.552-.067-1.987-.067-.478,0-1.149.023-2.019.067a12.586,12.586,0,0,0-2.638.423,6.857,6.857,0,0,0-2.31,1.075,2.349,2.349,0,0,0-.977,2.019v.259A4.6,4.6,0,0,1,454.8,395.8a15.133,15.133,0,0,1,2.736-.228,9.05,9.05,0,0,1,2.573.356,5.579,5.579,0,0,1,2.149,1.2,6,6,0,0,1,1.5,2.15,8.21,8.21,0,0,1,.552,3.192V411.2a3.814,3.814,0,0,1-.684,2.182,6.044,6.044,0,0,1-1.92,1.759,10.646,10.646,0,0,1-2.965,1.174,16.92,16.92,0,0,1-7.523,0,11.174,11.174,0,0,1-2.964-1.174,5.938,5.938,0,0,1-1.954-1.759,3.815,3.815,0,0,1-.684-2.182V396.872a9.246,9.246,0,0,1,1.14-4.786,8.66,8.66,0,0,1,3.159-3.1,14.506,14.506,0,0,1,4.755-1.661,33.358,33.358,0,0,1,5.862-.488,33.792,33.792,0,0,1,5.929.488,14.5,14.5,0,0,1,4.755,1.657,8.914,8.914,0,0,1,3.19,3.088,9.017,9.017,0,0,1,1.174,4.78V400.3a5.84,5.84,0,0,1-.686,2.7,4.767,4.767,0,0,1-1.987,2.046,5.917,5.917,0,0,1,1.791,1.764,6.023,6.023,0,0,1,.881,3.524ZM457.341,403.5q0-1.745-2.41-1.744a3.522,3.522,0,0,0-1.565.385,1.29,1.29,0,0,0-.78,1.228v5.692q0,1.487,2.345,1.485,2.407,0,2.41-1.485Z" transform="translate(-246.572 -375.247)" fill="#fff"/>
      <path id="Path_108767" data-name="Path 108767" d="M467.614,425.647a1.994,1.994,0,0,1-1.627-1.107,4.348,4.348,0,0,1-.716-2.408,6.59,6.59,0,0,1,.49-2.509c.326-.8.791-1.205,1.4-1.205a51.343,51.343,0,0,0,6.092-.422,71.2,71.2,0,0,0,7.1-1.239q3.618-.814,7.134-1.985a41.454,41.454,0,0,0,6.284-2.638,18.05,18.05,0,0,0,4.462-3.192,5.274,5.274,0,0,0,1.7-3.745V394.448a1.279,1.279,0,0,0-.858-1.14,4.58,4.58,0,0,0-2.041-.422,4.147,4.147,0,0,0-1.977.456,1.972,1.972,0,0,0-1.053,1.105v15.893a1.744,1.744,0,0,1-1.1,1.368,5.407,5.407,0,0,1-2.323.456,6.213,6.213,0,0,1-2.517-.456,1.5,1.5,0,0,1-1.031-1.433V396.532a2.469,2.469,0,0,0-.95-2.05,6.311,6.311,0,0,0-2.191-1.109,11.137,11.137,0,0,0-2.486-.423q-1.243-.062-1.9-.063t-1.831.063a9.58,9.58,0,0,0-2.323.423,5.453,5.453,0,0,0-2,1.109,2.592,2.592,0,0,0-.849,2.05l.054,1.565a3.545,3.545,0,0,1,1.878-1.042,13.749,13.749,0,0,1,2.528-.2,8.531,8.531,0,0,1,2.594.391,6.071,6.071,0,0,1,2.169,1.205,5.631,5.631,0,0,1,1.491,2.149,8.421,8.421,0,0,1,.552,3.226v4.688a4.7,4.7,0,0,1-2.5,3.975,11.915,11.915,0,0,1-6.586,1.626,12.087,12.087,0,0,1-6.622-1.626,4.7,4.7,0,0,1-2.529-3.975V396.793a10.445,10.445,0,0,1,1.008-4.82,8.016,8.016,0,0,1,2.828-3.126,12.3,12.3,0,0,1,4.422-1.661,31.227,31.227,0,0,1,5.725-.489,28.889,28.889,0,0,1,6.079.621,12.514,12.514,0,0,1,4.78,1.985,5.946,5.946,0,0,1,1.788-1.433,9.284,9.284,0,0,1,2.081-.78,12.164,12.164,0,0,1,2.05-.327c.649-.042,1.214-.065,1.692-.065a10.729,10.729,0,0,1,6.437,1.791,6.275,6.275,0,0,1,2.47,5.439v12.506a5.885,5.885,0,0,1-.807,2.931,14.348,14.348,0,0,1-2.1,2.8,4.678,4.678,0,0,1,2.9,4.3v3.778a4.469,4.469,0,0,1-2.339,3.942,11.629,11.629,0,0,1-6.237,1.464,12.174,12.174,0,0,1-6.273-1.413q-2.372-1.417-2.37-3.458v-.329q-2.925,1.186-5.952,2.14t-5.954,1.645q-2.928.689-5.531,1.053A33.794,33.794,0,0,1,467.614,425.647Zm9.187-20.776q0-1.824-2.182-1.826a2.8,2.8,0,0,0-1.457.393,1.389,1.389,0,0,0-.66,1.3v1.626q0,1.563,2.117,1.563,2.179,0,2.182-1.563Zm23.122,12.9q0-.912-1.7-.912h-.584a.8.8,0,0,0-.458.128l-.391.262a.545.545,0,0,0-.324.456v.977q0,.782,1.757.78,1.694,0,1.7-.78Z" transform="translate(-230.665 -375.364)" fill="#fff"/>
      <path id="Path_108768" data-name="Path 108768" d="M496.152,388.119q0-1.5-2.28-1.5-2.084,0-2.084,1.5v1.5a1.5,1.5,0,0,1-1.01,1.433,6.093,6.093,0,0,1-2.508.456,5.966,5.966,0,0,1-2.41-.456,1.507,1.507,0,0,1-1.042-1.433v-3.582a3.943,3.943,0,0,1,.651-2.18,6.123,6.123,0,0,1,1.856-1.791,9.564,9.564,0,0,1,2.9-1.2,15.2,15.2,0,0,1,3.713-.425,12.14,12.14,0,0,1,6.643,1.63,4.69,4.69,0,0,1,2.54,3.971v37.582a1.535,1.535,0,0,1-1.042,1.4,5.957,5.957,0,0,1-2.54.487,5.4,5.4,0,0,1-2.377-.487,1.529,1.529,0,0,1-1.009-1.4Z" transform="translate(-214.846 -380.433)" fill="#fff"/>
      <path id="Path_108769" data-name="Path 108769" d="M503.791,386.841a10.408,10.408,0,0,1,3.487.588,6.623,6.623,0,0,1,3.094,2.669,5.865,5.865,0,0,1,1.693-1.661,9.549,9.549,0,0,1,2.05-.977,11.118,11.118,0,0,1,2.086-.487,14.608,14.608,0,0,1,1.856-.132c.043,0,.508.033,1.4.1a9.527,9.527,0,0,1,2.866.72,8.172,8.172,0,0,1,2.8,1.925,5.115,5.115,0,0,1,1.272,3.722v14.3a10.552,10.552,0,0,1-.684,3.722,6.275,6.275,0,0,1-1.921,2.806h1.561a6.864,6.864,0,0,0,2.607-.391,2.887,2.887,0,0,0,1.335-1.044,3.3,3.3,0,0,0,.489-1.569c.042-.608.065-1.283.065-2.023V388.734a1.529,1.529,0,0,1,1.042-1.4,5.952,5.952,0,0,1,2.538-.49,5.407,5.407,0,0,1,2.379.488,1.524,1.524,0,0,1,1.008,1.4v22.6a9.914,9.914,0,0,1-.78,4.167,7.169,7.169,0,0,1-2.215,2.77,9.411,9.411,0,0,1-3.452,1.563,19.139,19.139,0,0,1-4.5.487,33.071,33.071,0,0,1-5.048-.358,14.7,14.7,0,0,1-4.2-1.27,16.593,16.593,0,0,1-4.3,1.3,31.165,31.165,0,0,1-5.081.391,19.009,19.009,0,0,1-4.494-.49,9.338,9.338,0,0,1-3.452-1.561,7.153,7.153,0,0,1-2.216-2.77,9.914,9.914,0,0,1-.78-4.167V393.226a5.656,5.656,0,0,1,2.148-4.657A8.263,8.263,0,0,1,503.791,386.841Zm2.933,7.49a1.227,1.227,0,0,0-.554-1.01,2.309,2.309,0,0,0-1.2-.293,1.917,1.917,0,0,0-1.174.393,1.309,1.309,0,0,0-.521,1.111v14.635c0,.74.024,1.417.065,2.024a3.273,3.273,0,0,0,.49,1.571,2.875,2.875,0,0,0,1.333,1.044,6.85,6.85,0,0,0,2.607.393,3.451,3.451,0,0,1,.78-.034,2.2,2.2,0,0,0,.653-.033,8.073,8.073,0,0,1-1.793-2.931,10.485,10.485,0,0,1-.682-3.711Zm12.7,2.866a4.542,4.542,0,0,0-.783-3.094,2.751,2.751,0,0,0-2.082-.814,3.027,3.027,0,0,0-2.019.716q-.85.719-.847,3.126V407.1a7.427,7.427,0,0,0,.554,2.669,5.109,5.109,0,0,0,2.312,2.477,5.41,5.41,0,0,0,2.28-2.443,6.854,6.854,0,0,0,.586-2.638Z" transform="translate(-205.552 -375.247)" fill="#fff"/>
      <path id="Path_108770" data-name="Path 108770" d="M528.247,394.462q-.133-1.43-2.216-1.433a1.439,1.439,0,0,1-1.4-.912,5.023,5.023,0,0,1-.425-2.149,4.915,4.915,0,0,1,.456-2.215,1.506,1.506,0,0,1,1.433-.912,11.8,11.8,0,0,1,6.613,1.661,4.782,4.782,0,0,1,2.506,4.006l-2.605,18.759a8.43,8.43,0,0,1,3.877,1.824,3.98,3.98,0,0,1,1.464,3.063v8.27a4.606,4.606,0,0,1-2.376,4.136,12.306,12.306,0,0,1-6.481,1.467,12.479,12.479,0,0,1-6.515-1.467,4.544,4.544,0,0,1-2.41-4.071v-8.27a4.049,4.049,0,0,1,1.466-2.9,8.907,8.907,0,0,1,4.006-2.052Zm-1.109,28.073a1.477,1.477,0,0,0,.295.914c.194.259.726.391,1.594.391a2.875,2.875,0,0,0,1.531-.293,1.145,1.145,0,0,0,.425-1.011v-4.362a1.145,1.145,0,0,0-.425-1.011,2.876,2.876,0,0,0-1.531-.293,2.69,2.69,0,0,0-1.5.293,1.192,1.192,0,0,0-.391,1.011Z" transform="translate(-186.238 -375.247)" fill="#fff"/>
      <path id="Path_108771" data-name="Path 108771" d="M545.848,386.841a34.463,34.463,0,0,1,6.09.488,13.086,13.086,0,0,1,4.592,1.661,7.963,7.963,0,0,1,2.9,3.1,10.212,10.212,0,0,1,1.01,4.786v21.559a1.529,1.529,0,0,1-1.01,1.4,5.409,5.409,0,0,1-2.377.487,5.951,5.951,0,0,1-2.54-.487,1.532,1.532,0,0,1-1.042-1.4V396.613a2.387,2.387,0,0,0-.944-2.019,6.579,6.579,0,0,0-2.215-1.075,11.5,11.5,0,0,0-2.54-.423c-.847-.043-1.487-.067-1.921-.067s-1.075.023-1.921.067a11.538,11.538,0,0,0-2.542.423,6.565,6.565,0,0,0-2.213,1.075,2.382,2.382,0,0,0-.945,2.019v.259a4.242,4.242,0,0,1,2.18-1.073,15.735,15.735,0,0,1,2.77-.228,9.06,9.06,0,0,1,2.573.356,5.593,5.593,0,0,1,2.149,1.2,5.986,5.986,0,0,1,1.5,2.15,8.208,8.208,0,0,1,.554,3.192V414.72a3.819,3.819,0,0,1-.684,2.182,6.387,6.387,0,0,1-1.921,1.789,9.956,9.956,0,0,1-2.964,1.2,16.922,16.922,0,0,1-7.523,0,10.386,10.386,0,0,1-2.964-1.2,6.254,6.254,0,0,1-1.954-1.789,3.819,3.819,0,0,1-.684-2.182V396.872a9.464,9.464,0,0,1,1.107-4.786,8.538,8.538,0,0,1,3.061-3.1,13.752,13.752,0,0,1,4.624-1.661A32.254,32.254,0,0,1,545.848,386.841Zm-2.866,16.674q0-1.756-2.41-1.757a3.49,3.49,0,0,0-1.563.389,1.3,1.3,0,0,0-.781,1.238v9.249q0,1.5,2.345,1.5,2.41,0,2.41-1.5Z" transform="translate(-177.264 -375.247)" fill="#fff"/>
      <path id="Path_108772" data-name="Path 108772" d="M567.512,403.241a2.5,2.5,0,0,1,1.042.751,3.431,3.431,0,0,1,.586,1.073,4.5,4.5,0,0,1,.228,1.174c.022.391.033.715.033.977v7.621a3.333,3.333,0,0,1-.845,2.182,7.712,7.712,0,0,1-2.272,1.789,12.578,12.578,0,0,1-3.311,1.2,18.283,18.283,0,0,1-7.823,0,12.626,12.626,0,0,1-3.278-1.2,7.716,7.716,0,0,1-2.272-1.789,3.333,3.333,0,0,1-.845-2.182V409.1a1.529,1.529,0,0,1,1.031-1.4,5.893,5.893,0,0,1,2.518-.487,5.5,5.5,0,0,1,2.419.487,1.525,1.525,0,0,1,1,1.4v3.58q0,.719,1.053,1.14a6.294,6.294,0,0,0,2.368.423,5.869,5.869,0,0,0,2.269-.423q1.018-.421,1.019-1.14V409.04a1.372,1.372,0,0,0-.391-1.109,2.819,2.819,0,0,0-.716-.456l-10.682-3.646a2.5,2.5,0,0,1-1.042-.749,3.476,3.476,0,0,1-.586-1.075,4.508,4.508,0,0,1-.228-1.174c-.022-.389-.032-.716-.032-.977V392.3a3.326,3.326,0,0,1,.845-2.182,7.722,7.722,0,0,1,2.272-1.793,12.76,12.76,0,0,1,3.278-1.2,18.281,18.281,0,0,1,7.823,0,12.709,12.709,0,0,1,3.311,1.2,7.717,7.717,0,0,1,2.272,1.793,3.325,3.325,0,0,1,.845,2.182v5.732a1.524,1.524,0,0,1-1.033,1.4,5.82,5.82,0,0,1-2.515.49,5.493,5.493,0,0,1-2.388-.49,1.524,1.524,0,0,1-1.033-1.4v-3.584q0-.716-1.053-1.14a6.326,6.326,0,0,0-2.367-.422,5.959,5.959,0,0,0-2.236.422q-1.053.423-1.053,1.14V397.9a1.375,1.375,0,0,0,.391,1.109,2.769,2.769,0,0,0,.717.456Z" transform="translate(-163.105 -375.364)" fill="#fff"/>
    </g>
  </g>
</svg>
