<svg id="Group_36214" data-name="Group 36214" xmlns="http://www.w3.org/2000/svg" xmlns:xlink="http://www.w3.org/1999/xlink" width="500.27" height="309.597" viewBox="0 0 500.27 309.597">
  <defs>
    <linearGradient id="linear-gradient" x1="11.677" y1="-10.674" x2="11.759" y2="-9.735" gradientUnits="objectBoundingBox">
      <stop offset="0.164" stop-color="#a05805"/>
      <stop offset="0.212" stop-color="#a66212"/>
      <stop offset="0.303" stop-color="#b77f35"/>
      <stop offset="0.426" stop-color="#d2ad6d"/>
      <stop offset="0.574" stop-color="#f7ecba"/>
      <stop offset="0.601" stop-color="#fff9ca"/>
      <stop offset="1" stop-color="#c38f24"/>
    </linearGradient>
    <linearGradient id="linear-gradient-2" x1="0.794" y1="0.306" x2="1.275" y2="-1.068" gradientUnits="objectBoundingBox">
      <stop offset="0" stop-color="#f3e08d"/>
      <stop offset="0.166" stop-color="#c59227"/>
      <stop offset="0.278" stop-color="#c38f24"/>
      <stop offset="0.292" stop-color="#c08a21"/>
      <stop offset="0.423" stop-color="#a8650c"/>
      <stop offset="0.493" stop-color="#a05805"/>
      <stop offset="0.517" stop-color="#a66212"/>
      <stop offset="0.562" stop-color="#b77f35"/>
      <stop offset="0.623" stop-color="#d2ad6d"/>
      <stop offset="0.696" stop-color="#f7ecba"/>
      <stop offset="0.71" stop-color="#fff9ca"/>
      <stop offset="0.861" stop-color="#c38f24"/>
    </linearGradient>
    <linearGradient id="linear-gradient-3" x1="1.094" y1="-1.375" x2="1.125" y2="-0.352" gradientUnits="objectBoundingBox">
      <stop offset="0" stop-color="#89540f"/>
      <stop offset="0.118" stop-color="#8f550b"/>
      <stop offset="0.266" stop-color="#a05805"/>
      <stop offset="0.312" stop-color="#a66212"/>
      <stop offset="0.399" stop-color="#b77f35"/>
      <stop offset="0.517" stop-color="#d2ad6d"/>
      <stop offset="0.66" stop-color="#f7ecba"/>
      <stop offset="0.686" stop-color="#fff9ca"/>
      <stop offset="0.841" stop-color="#c38f24"/>
      <stop offset="1" stop-color="#63380e"/>
    </linearGradient>
    <linearGradient id="linear-gradient-4" x1="1.185" y1="-0.609" x2="1.31" y2="-2.036" gradientUnits="objectBoundingBox">
      <stop offset="0" stop-color="#63380e"/>
      <stop offset="0.139" stop-color="#c38f24"/>
      <stop offset="0.321" stop-color="#fff9ca"/>
      <stop offset="0.402" stop-color="#e3c58a"/>
      <stop offset="0.483" stop-color="#ca9752"/>
      <stop offset="0.543" stop-color="#ba7b2f"/>
      <stop offset="0.575" stop-color="#b57122"/>
      <stop offset="0.662" stop-color="#bb7e22"/>
      <stop offset="0.739" stop-color="#c38f24"/>
      <stop offset="0.773" stop-color="#c99a32"/>
      <stop offset="0.839" stop-color="#dbb758"/>
      <stop offset="0.915" stop-color="#f3e08d"/>
    </linearGradient>
  </defs>
  <g id="Group_23143" data-name="Group 23143" transform="translate(243.249 202.376) rotate(12.007)">
    <path id="Path_41183" data-name="Path 41183" d="M0,0C9.511,5.984,5,21.83,4.826,20.987l12.838-1.481C18.336,15.284,16.667,1.872,0,0Z" transform="translate(245.538 2.445)" fill="url(#linear-gradient)"/>
    <path id="Path_41184" data-name="Path 41184" d="M53.344,6.135C34.8,18.943,22.066,61.987,0,52.642c46.838,15.99,45.933-27.1,67.383-43.831C75.445,2.525,86.06.923,94.042,3.795,88.278,1.365,68.681-4.456,53.344,6.135Z" transform="translate(157.486 0)" fill="url(#linear-gradient-2)"/>
    <path id="Path_41185" data-name="Path 41185" d="M0,0C9.443,2.81,14.763,8.915,26.785,16.634c30.3,19.454,42.948,15.589,55.938,14.787-7.9-.845-25.567-8.539-32.274-12.869C29.894,5.3,13.212.4,0,0Z" transform="translate(72.775 24.719)" fill="url(#linear-gradient-3)"/>
    <path id="Path_41186" data-name="Path 41186" d="M0,19.95l18.32,3.113C20.929,17.938,43.752.106,67.582,3.44,21.755-8.427,3.171,13.724,0,19.95Z" transform="translate(0 22.112)" fill="url(#linear-gradient-4)"/>
  </g>
  <g id="Group_27880" data-name="Group 27880" transform="translate(0 0)">
    <rect id="Rectangle_5596" data-name="Rectangle 5596" width="357.567" height="304.808" rx="10" transform="translate(0 0)" fill="#fff"/>
    <rect id="Rectangle_5597" data-name="Rectangle 5597" width="357.567" height="33.823" rx="6" transform="translate(0 0)" fill="#5c9cf4"/>
    <g id="Group_27872" data-name="Group 27872" transform="translate(14.459 12.664)">
      <path id="Path_81108" data-name="Path 81108" d="M106.131,85.7a4.044,4.044,0,1,1,4.045,4.043A4.044,4.044,0,0,1,106.131,85.7Z" transform="translate(-106.131 -81.657)" fill="#dae6ff"/>
      <path id="Path_81109" data-name="Path 81109" d="M120.844,85.7a4.043,4.043,0,1,1,4.043,4.043A4.043,4.043,0,0,1,120.844,85.7Z" transform="translate(-103.871 -81.657)" fill="#dae6ff"/>
      <path id="Path_81110" data-name="Path 81110" d="M135.556,85.7a4.043,4.043,0,1,1,4.043,4.043A4.043,4.043,0,0,1,135.556,85.7Z" transform="translate(-101.611 -81.657)" fill="#dae6ff"/>
    </g>
    <rect id="Rectangle_5598" data-name="Rectangle 5598" width="101.359" height="101.358" transform="translate(28.337 60.66)" fill="#c8dffd" opacity="0.5"/>
    <path id="Path_81111" data-name="Path 81111" d="M311.046,130.831H230.423a3.83,3.83,0,0,1-3.831-3.83h0a3.831,3.831,0,0,1,3.831-3.831h80.623a3.83,3.83,0,0,1,3.83,3.831h0A3.829,3.829,0,0,1,311.046,130.831Z" transform="translate(-73.167 -62.616)" fill="#7798f8" opacity="0.5"/>
    <path id="Path_81112" data-name="Path 81112" d="M394.618,126.378H314a3.83,3.83,0,0,1-3.83-3.831h0a3.829,3.829,0,0,1,3.83-3.83h80.623a3.829,3.829,0,0,1,3.83,3.83h0A3.83,3.83,0,0,1,394.618,126.378Z" transform="translate(-60.33 -63.3)" fill="#7798f8" opacity="0.5"/>
    <g id="Group_27873" data-name="Group 27873" transform="translate(153.425 92.739)" opacity="0.3">
      <path id="Path_81113" data-name="Path 81113" d="M327,156.034H229.076a2.484,2.484,0,0,1-2.484-2.483h0a2.483,2.483,0,0,1,2.484-2.483H327a2.482,2.482,0,0,1,2.483,2.483h0A2.483,2.483,0,0,1,327,156.034Z" transform="translate(-226.592 -151.069)" fill="#b8d0fc"/>
      <path id="Path_81114" data-name="Path 81114" d="M349.678,156.034H323.827a2.483,2.483,0,0,1-2.483-2.483h0a2.483,2.483,0,0,1,2.483-2.483h25.851a2.482,2.482,0,0,1,2.483,2.483h0A2.483,2.483,0,0,1,349.678,156.034Z" transform="translate(-212.037 -151.069)" fill="#b8d0fc"/>
      <path id="Path_81115" data-name="Path 81115" d="M266.025,169.382H229.076a2.484,2.484,0,0,1-2.484-2.484h0a2.484,2.484,0,0,1,2.484-2.483h36.949a2.483,2.483,0,0,1,2.482,2.483h0A2.483,2.483,0,0,1,266.025,169.382Z" transform="translate(-226.592 -149.019)" fill="#b8d0fc"/>
      <path id="Path_81116" data-name="Path 81116" d="M319.726,169.382H269.095a2.483,2.483,0,0,1-2.483-2.484h0a2.483,2.483,0,0,1,2.483-2.483h50.631a2.483,2.483,0,0,1,2.483,2.483h0A2.483,2.483,0,0,1,319.726,169.382Z" transform="translate(-220.445 -149.019)" fill="#b8d0fc"/>
      <path id="Path_81117" data-name="Path 81117" d="M349.678,169.382H323.827a2.484,2.484,0,0,1-2.483-2.484h0a2.483,2.483,0,0,1,2.483-2.483h25.851a2.483,2.483,0,0,1,2.483,2.483h0A2.483,2.483,0,0,1,349.678,169.382Z" transform="translate(-212.037 -149.019)" fill="#b8d0fc"/>
      <path id="Path_81118" data-name="Path 81118" d="M279.212,180.923H229.076a2.484,2.484,0,0,1-2.484-2.483h0a2.483,2.483,0,0,1,2.484-2.483h50.136a2.483,2.483,0,0,1,2.484,2.483h0A2.483,2.483,0,0,1,279.212,180.923Z" transform="translate(-226.592 -147.246)" fill="#b8d0fc"/>
      <path id="Path_81119" data-name="Path 81119" d="M366.448,180.923h-82a2.483,2.483,0,0,1-2.483-2.483h0a2.482,2.482,0,0,1,2.483-2.483h82a2.483,2.483,0,0,1,2.483,2.483h0A2.483,2.483,0,0,1,366.448,180.923Z" transform="translate(-218.086 -147.246)" fill="#b8d0fc"/>
    </g>
    <g id="Group_27874" data-name="Group 27874" transform="translate(153.425 141.655)" opacity="0.3">
      <path id="Path_81120" data-name="Path 81120" d="M327,198.437H229.076a2.483,2.483,0,0,1-2.484-2.483h0a2.483,2.483,0,0,1,2.484-2.483H327a2.482,2.482,0,0,1,2.483,2.483h0A2.482,2.482,0,0,1,327,198.437Z" transform="translate(-226.592 -193.472)" fill="#b8d0fc"/>
      <path id="Path_81121" data-name="Path 81121" d="M349.678,198.437H323.827a2.483,2.483,0,0,1-2.483-2.483h0a2.483,2.483,0,0,1,2.483-2.483h25.851a2.482,2.482,0,0,1,2.483,2.483h0A2.482,2.482,0,0,1,349.678,198.437Z" transform="translate(-212.037 -193.472)" fill="#b8d0fc"/>
      <path id="Path_81122" data-name="Path 81122" d="M266.025,211.785H229.076a2.484,2.484,0,0,1-2.484-2.483h0a2.483,2.483,0,0,1,2.484-2.483h36.949a2.482,2.482,0,0,1,2.482,2.483h0A2.483,2.483,0,0,1,266.025,211.785Z" transform="translate(-226.592 -191.422)" fill="#b8d0fc"/>
      <path id="Path_81123" data-name="Path 81123" d="M319.726,211.785H269.095a2.483,2.483,0,0,1-2.483-2.483h0a2.482,2.482,0,0,1,2.483-2.483h50.631a2.482,2.482,0,0,1,2.483,2.483h0A2.483,2.483,0,0,1,319.726,211.785Z" transform="translate(-220.445 -191.422)" fill="#b8d0fc"/>
    </g>
    <g id="Group_27875" data-name="Group 27875" transform="translate(45.502 75.769)">
      <path id="Path_81124" data-name="Path 81124" d="M161.321,136.359h10.468l28.281,64.735H188.133l-6.52-15.518H151.221l-6.611,15.518H133.04Zm16.161,39.208-11.11-25.709-11.019,25.709Z" transform="translate(-133.04 -136.359)" fill="#b8d0fc"/>
    </g>
    <g id="Group_27876" data-name="Group 27876" transform="translate(28.337 182.436)">
      <rect id="Rectangle_5599" data-name="Rectangle 5599" width="56.62" height="10.931" fill="#ff912b"/>
      <rect id="Rectangle_5600" data-name="Rectangle 5600" width="56.62" height="10.931" transform="translate(0 10.931)" fill="#fc7600"/>
      <rect id="Rectangle_5601" data-name="Rectangle 5601" width="56.62" height="10.93" transform="translate(0 21.862)" fill="#4b49f2"/>
    </g>
    <g id="Group_27877" data-name="Group 27877" transform="translate(93.161 183.903)">
      <path id="Path_81125" data-name="Path 81125" d="M207.867,234.815H176.713a2.36,2.36,0,0,1-2.36-2.36h0a2.36,2.36,0,0,1,2.36-2.36h31.153a2.36,2.36,0,0,1,2.36,2.36h0A2.36,2.36,0,0,1,207.867,234.815Z" transform="translate(-174.353 -230.094)" fill="#b8d0fc"/>
      <path id="Path_81126" data-name="Path 81126" d="M197.371,242.028H176.713a2.36,2.36,0,0,1-2.36-2.36h0a2.36,2.36,0,0,1,2.36-2.36h20.658a2.36,2.36,0,0,1,2.36,2.36h0A2.36,2.36,0,0,1,197.371,242.028Z" transform="translate(-174.353 -228.986)" fill="#b8d0fc"/>
    </g>
    <g id="Group_27878" data-name="Group 27878" transform="translate(28.337 238.952)">
      <rect id="Rectangle_5602" data-name="Rectangle 5602" width="56.62" height="22.335" fill="#ff912b"/>
      <rect id="Rectangle_5603" data-name="Rectangle 5603" width="56.62" height="15.973" transform="translate(0 16.819)" fill="#c23b35"/>
      <path id="Path_81127" data-name="Path 81127" d="M118.161,277.813l20.312,17.062-20.312,15.731Z" transform="translate(-118.161 -277.813)" fill="#4b49f2"/>
    </g>
    <g id="Group_27879" data-name="Group 27879" transform="translate(93.161 240.419)">
      <path id="Path_81128" data-name="Path 81128" d="M207.867,283.806H176.713a2.36,2.36,0,0,1-2.36-2.36h0a2.36,2.36,0,0,1,2.36-2.36h31.153a2.36,2.36,0,0,1,2.36,2.36h0A2.36,2.36,0,0,1,207.867,283.806Z" transform="translate(-174.353 -279.085)" fill="#b8d0fc"/>
      <path id="Path_81129" data-name="Path 81129" d="M197.371,291.018H176.713a2.359,2.359,0,0,1-2.36-2.36h0a2.361,2.361,0,0,1,2.36-2.36h20.658a2.361,2.361,0,0,1,2.36,2.36h0A2.36,2.36,0,0,1,197.371,291.018Z" transform="translate(-174.353 -277.977)" fill="#b8d0fc"/>
    </g>
  </g>
</svg>
