<svg xmlns="http://www.w3.org/2000/svg" xmlns:xlink="http://www.w3.org/1999/xlink" width="195.155" height="179.781" viewBox="0 0 195.155 179.781">
  <defs>
    <linearGradient id="linear-gradient" x1="0.741" y1="-0.22" x2="0.249" y2="1.03" gradientUnits="objectBoundingBox">
      <stop offset="0" stop-color="#63380e"/>
      <stop offset="0.231" stop-color="#c38f24"/>
      <stop offset="0.409" stop-color="#fff9ca"/>
      <stop offset="0.446" stop-color="#f7ecba"/>
      <stop offset="0.646" stop-color="#d2ad6d"/>
      <stop offset="0.812" stop-color="#b77f35"/>
      <stop offset="0.934" stop-color="#a66212"/>
      <stop offset="1" stop-color="#a05805"/>
    </linearGradient>
    <linearGradient id="linear-gradient-2" x1="1.009" y1="0.069" x2="0.029" y2="0.912" gradientUnits="objectBoundingBox">
      <stop offset="0.007" stop-color="#b48426"/>
      <stop offset="0.166" stop-color="#f3e08d"/>
      <stop offset="0.234" stop-color="#dbb758"/>
      <stop offset="0.292" stop-color="#c99a32"/>
      <stop offset="0.322" stop-color="#c38f24"/>
      <stop offset="0.389" stop-color="#bb7e22"/>
      <stop offset="0.466" stop-color="#b57122"/>
      <stop offset="0.493" stop-color="#ba7b2f"/>
      <stop offset="0.543" stop-color="#ca9752"/>
      <stop offset="0.611" stop-color="#e3c58a"/>
      <stop offset="0.679" stop-color="#fff9ca"/>
      <stop offset="0.861" stop-color="#c38f24"/>
      <stop offset="1" stop-color="#63380e"/>
    </linearGradient>
    <linearGradient id="linear-gradient-3" x1="0.73" y1="-0.316" x2="0.285" y2="1.373" gradientUnits="objectBoundingBox">
      <stop offset="0" stop-color="#f3e08d"/>
      <stop offset="0.166" stop-color="#c59227"/>
      <stop offset="0.278" stop-color="#c38f24"/>
      <stop offset="0.292" stop-color="#c08a21"/>
      <stop offset="0.423" stop-color="#a8650c"/>
      <stop offset="0.493" stop-color="#a05805"/>
      <stop offset="0.517" stop-color="#a66212"/>
      <stop offset="0.562" stop-color="#b77f35"/>
      <stop offset="0.623" stop-color="#d2ad6d"/>
      <stop offset="0.696" stop-color="#f7ecba"/>
      <stop offset="0.71" stop-color="#fff9ca"/>
      <stop offset="0.861" stop-color="#c38f24"/>
    </linearGradient>
    <linearGradient id="linear-gradient-4" x1="0.539" y1="0.048" x2="0.461" y2="0.952" gradientUnits="objectBoundingBox">
      <stop offset="0.085" stop-color="#f3e08d"/>
      <stop offset="0.161" stop-color="#dbb758"/>
      <stop offset="0.227" stop-color="#c99a32"/>
      <stop offset="0.261" stop-color="#c38f24"/>
      <stop offset="0.338" stop-color="#bb7e22"/>
      <stop offset="0.425" stop-color="#b57122"/>
      <stop offset="0.457" stop-color="#ba7b2f"/>
      <stop offset="0.517" stop-color="#ca9752"/>
      <stop offset="0.598" stop-color="#e3c58a"/>
      <stop offset="0.679" stop-color="#fff9ca"/>
      <stop offset="0.861" stop-color="#c38f24"/>
      <stop offset="1" stop-color="#63380e"/>
    </linearGradient>
  </defs>
  <g id="Group_23145" data-name="Group 23145" transform="translate(1.276) rotate(1)">
    <path id="Path_41200" data-name="Path 41200" d="M48.207,3.268S19.586,14.129,0,0A20.834,20.834,0,0,0,1.814,3.086c18.371,25.972,60.9,10.839,60.9,10.839Z" transform="translate(133.983 158.09)" fill="url(#linear-gradient)"/>
    <path id="Path_41201" data-name="Path 41201" d="M63.446,13.8C62.346,6.417,58.373,2.093,52.907,0c.219.775.409,1.584.565,2.437,4.7,25.718-71.632,51.77-49.405,86.349A22.8,22.8,0,0,0,5.676,90.9l-.007.012L15.5,102.144a34.8,34.8,0,0,1-3.278-5.076c-.053-.124-.122-.276-.2-.448C-.288,68.869,68.659,48.8,63.446,13.8Z" transform="translate(121.757 61.024)" fill="url(#linear-gradient-2)"/>
    <path id="Path_41202" data-name="Path 41202" d="M101.46,6.188l-.088.038a14.793,14.793,0,0,0-1.254-1.131C89.4-3.5,68.747-1.277,43.41,12.171q-5.421,2.875-11.1,6.436C23.645,24.038,7.669,24.521,0,18.674c9.183,7.676,27.471,18.488,42.279,11.3,4.727-2.295,9.432-4.476,14.044-6.47,19.992-8.645,38.267-13.784,49.372-9.53a20.461,20.461,0,0,1,5.466,3.408Z" transform="translate(68.97 47.048)" fill="url(#linear-gradient-3)"/>
    <path id="Path_41203" data-name="Path 41203" d="M79.7,73.117S72.4,67.134,69.493,64.155C53.113,47.324,38.863,18.2,34.2,6.7L0,0C5.5,13.574,25.231,42.319,59.3,62.416,63.851,65.1,79.7,73.117,79.7,73.117Z" fill="url(#linear-gradient-4)"/>
  </g>
</svg>
